<?xml version="1.0" encoding="utf-8"?>
<!-- Generator: Adobe Illustrator 18.1.1, SVG Export Plug-In . SVG Version: 6.00 Build 0)  -->
<!DOCTYPE svg PUBLIC "-//W3C//DTD SVG 1.1//EN" "http://www.w3.org/Graphics/SVG/1.1/DTD/svg11.dtd">
<svg version="1.1" id="Layer_1" xmlns="http://www.w3.org/2000/svg" xmlns:xlink="http://www.w3.org/1999/xlink" x="0px" y="0px"
	 width="422.6px" height="422.6px" viewBox="0 0 422.6 422.6" style="enable-background:new 0 0 422.6 422.6;" xml:space="preserve"
	>
<style type="text/css">
	.st0{fill:#FFFFFF;}
</style>
<g>
	<path class="st0" d="M422.6,211.4c0,54.1,0,108.2,0,162.3c0,11-3.3,20.9-10,29.6c-7.5,9.8-17.4,16-29.5,18.5
		c-3.3,0.7-6.6,0.9-10,0.9c-105.6,0-211.2,0-316.8,0c-2.4,0-4.8,0-7.3,0c-17.6,0.1-33.7-9.5-42.4-24.3c-3.5-6-5.6-12.4-6.4-19.3
		c-0.2-1.9-0.3-3.7-0.3-5.6C0,265.4,0,157.2,0,49.1c0-12.6,4.3-23.7,12.8-33.1C20.7,7.3,30.6,2.1,42.3,0.4c1.9-0.3,3.9-0.3,5.9-0.4
		c0.4,0,0.8,0,1.2,0c108,0,215.9,0,323.9,0c6.6,0,12.9,1.1,19,3.7c10.6,4.4,18.7,11.7,24.4,21.8c2.8,5,4.6,10.4,5.5,16.1
		c0.3,2,0.5,4,0.5,6.1c0,10.2,0,20.3,0,30.5C422.6,122.5,422.6,167,422.6,211.4z M49.3,179.1c0,1-0.1,1.8-0.1,2.6
		c0,58.1,0,116.2,0,174.3c0,0.6,0,1.2,0,1.8c0.1,7.4,5.4,13.8,12.6,15.3c1.6,0.3,3.3,0.4,4.9,0.4c96.4,0,192.8,0,289.2,0
		c0.8,0,1.5,0,2.3,0c0.5,0,1,0,1.5-0.1c7.6-1.2,12.7-6.9,13.6-13.6c0.2-1.2,0.2-2.5,0.2-3.8c0-58.2,0-116.3,0-174.5
		c0-0.4,0-0.9,0-1.3c0-0.4-0.1-0.7-0.2-1.1c-0.4,0-0.6-0.1-0.9-0.1c-11.6,0-23.2,0-34.8,0c0,0-0.1,0.1-0.1,0.1c0,0-0.1,0.1-0.1,0.1
		c0,0.1-0.1,0.2,0,0.3c0.3,1.4,0.6,2.8,0.9,4.2c1.6,7.2,2.6,14.5,3,21.9c0.2,4.7,0.2,9.3-0.2,14c-0.5,7.4-1.5,14.6-3.3,21.8
		c-4.5,18.8-12.8,35.8-24.9,51c-7.1,8.9-15.1,16.7-24.2,23.4c-10,7.4-20.8,13.3-32.5,17.6c-14.1,5.2-28.7,7.8-43.7,8
		c-6,0.1-12.1-0.3-18.1-1.1c-7.9-1-15.6-2.7-23.1-5.2c-10.6-3.4-20.6-8.1-30-14.2c-8-5.1-15.4-11.1-22.2-17.9
		c-5.9-5.9-11.2-12.3-15.8-19.2c-3.3-4.9-6.3-9.9-8.9-15.2c-5.4-11.1-9.3-22.8-11.4-35c-0.9-5.3-1.5-10.5-1.8-15.9
		c-0.2-4-0.2-7.9,0-11.9c0.2-4.1,0.6-8.2,1.2-12.3c0.6-4.5,1.5-8.9,2.6-13.3c0.1-0.4,0.1-0.8,0.1-1.3
		C73.2,179.1,61.4,179.1,49.3,179.1z M292.3,211.3c0.4-44.2-36.1-81-80.9-81c-43.8,0-81,35.4-81,81c0,45.2,36.8,81,81,81
		C256.5,292.3,292.7,255.3,292.3,211.3z M333.2,130c8.1,0,16.2,0,24.2,0c4.5,0,8.4-1.6,11.5-4.8c3.2-3.3,4.7-7.2,4.7-11.8
		c0-15.9,0-31.8,0-47.7c0-0.3,0-0.6,0-0.8c-0.4-6.2-3.2-11-8.7-14c-2.6-1.4-5.5-1.8-8.4-1.8c-15.3,0-30.6,0-45.8,0
		c-1.2,0-2.4,0.1-3.6,0.2c-5.3,0.6-9.3,3.3-12.1,7.9c-1.6,2.6-2.2,5.5-2.2,8.5c0,5.3,0,10.6,0,15.8c0,10.6,0,21.1,0,31.7
		c0,3.2,0.6,6.2,2.4,9c3.2,5.1,7.9,7.7,13.9,7.8C317,130,325.1,130,333.2,130z"/>
</g>
</svg>
