<?xml version="1.0" encoding="utf-8"?>
<!-- Generator: Adobe Illustrator 18.1.1, SVG Export Plug-In . SVG Version: 6.00 Build 0)  -->
<!DOCTYPE svg PUBLIC "-//W3C//DTD SVG 1.1//EN" "http://www.w3.org/Graphics/SVG/1.1/DTD/svg11.dtd">
<svg version="1.1" xmlns="http://www.w3.org/2000/svg" xmlns:xlink="http://www.w3.org/1999/xlink" x="0px" y="0px"
	 viewBox="0 0 353 137" style="enable-background:new 0 0 353 137;" xml:space="preserve">
<g id="Layer_2">
</g>
<g id="future-diary-logo_xA0_Image_1_">
	<g>
		<path d="M243.3,71.6c2.8,0,5.7,0,8.6,0c0.2,0.6,0,1.7,0.1,2.3c-0.5,0-0.5,0-0.9,0c-1.2,0-2.3,0-3.5,0c-0.3,0-0.5-0.1-0.8,0.2
			c1.3,2.1,2.3,4.4,3.5,6.6c0.4,0.8,0.7,1.6,0.6,2.6c-0.1,1.2,0,2.3,0,3.5c0,0.2,0.1,0.5-0.1,0.6c-0.3-0.1-0.3-0.2-0.5-0.4
			c-0.3-0.5-0.7-0.9-1.1-1.3c-1.2-1.5-2.2-3.1-3.5-4.7c-0.6-0.8-1.1-1.7-1.8-2.3c-0.1-0.1-0.3-0.2-0.5-0.1c0,2.2,0,4.4,0,6.6
			c-1.3,0.2-2.1,0.9-2.3,2.2c-1.2,0-2.4,0-3.7,0c0-3,0-6.1,0-9.3c-2.5,3.2-4.8,6.1-7.3,9.4c0-2,0-3.7,0-5.3c0-0.3,0.1-0.6,0.3-0.8
			c1.2-2.3,2.3-4.6,3.5-6.9c0-0.1,0-0.2,0-0.3c0,0,0-0.1-0.1-0.1c0,0-0.1-0.1-0.1-0.1c-1.6,0-3.2,0-4.9,0c0-0.7,0-1.4,0-2.1
			c0,0,0,0,0,0c0,0,0.1,0,0.1,0c2.3,0,4.6,0,7,0c0.2,0.4,0.7,0.6,1.1,0.8c0.7,0.3,1.9-0.3,2.3-0.9c0.4-0.7,0.3-1.7-0.2-2.4
			c-0.7-0.8-1.4-0.9-2.3-0.5c-0.5,0.2-1,0.3-1.5,0.3c-1.5,0-3,0-4.6,0c0-0.7,0-1.2,0-1.8c2.2,0,4.4,0,6.7,0c0.1-1,0-2,0.1-3
			c2,0,3.9,0,5.9,0c0,0.9,0,1.9,0,2.9c2.3,0,4.5,0,6.7,0c0,0.7,0,1.3,0,1.9c-2.2,0-4.4,0-6.6,0L243.3,71.6z"/>
		<path d="M267.1,78.8c0,1.7,0,3.5,0,5.3c2.9,0,5.8,0,8.9,0c0,0.7,0,1.3,0,1.9c-1.2,0-2.4,0-3.6,0c-0.2,0.3-0.4,0.6-0.1,0.9
			c0.2,0.3,0.5,0.8,0.7,1.1c0.6,1,1.1,2,1.7,3c0.1,0.1,0.1,0.3,0.1,0.5c0,1.6,0,3.2,0,4.9c0,0.1-0.1,0.1-0.1,0.2
			c-0.3,0.1-0.4-0.1-0.6-0.3c-0.8-1.2-1.7-2.2-2.6-3.4c-0.5-0.7-0.7-0.9-1.3-1.6c-0.9-0.8-1.5-2-2.5-2.8c-0.1-0.1-0.2-0.1-0.5-0.1
			c0,2.9,0,5.7,0,8.6c-1.2,0-2.3,0-3.5,0c-0.5-0.8-1-1.7-2.2-1.6c0-2.4,0-4.8,0-7.5c-0.7,0.9-1.2,1.4-1.7,2.1
			c-0.5,0.6-1.1,1.1-1.5,1.8c-0.5,0.7-1.1,1.2-1.6,1.9c-0.8,1-1.5,1.9-2.7,2.9c0-0.5,0-1.1,0-1.6c0-0.5,0-1.1,0-1.6c0-0.5,0-1,0-1.5
			c0-0.4-0.1-1.1,0.3-1.4c0.3-0.3,0.1-0.1,0.4-0.4c0.7,0.6,1.4,1.1,2.4,0.6c0.8-0.4,1.3-1,1.3-1.9c0-1.2-0.9-1.8-1.9-2.1
			c0.2-0.2,0.4-0.3,0.2-0.7c-1.2,0-2.4,0-3.7,0c0-0.7,0-1.2,0-1.9c2.8,0,5.7,0,8.6,0c0-1.8,0-3.6,0-5.4c-0.4,0-0.8,0-1.3,0
			c0,1.6,0,3.2,0,4.8c-0.5,0-0.9,0-1.3,0c-0.8-1.6-1.1-3.4-2.1-4.9c-1.1,0-2.1,0-3.1,0c0-0.6,0-1.2,0-1.8c2.6,0,5.1,0,7.8,0
			c0.1-1,0-2,0.1-3c1.3,0,2.6,0,3.9,0c0.2,0.8,1,1.1,1.7,1.4c0,0.5,0,0.9,0,1.5c2.7,0,5.3,0,8.1,0c0.1,0.6,0,1.3,0.1,1.9
			c-1.2,0-2.3,0-3.4,0c-0.6,1.7-1.1,3.3-1.8,4.9c-0.5,0-0.9,0-1.5,0c0-1.6,0-3.1,0-4.7L267.1,78.8z"/>
		<path d="M294.1,77.9c0.9-0.1,1.5,0.6,1.9,1.4V68.2h-10.5c0.2,0.9-0.8,1.1-1.1,1.8h5.1v4.8h-6.9c0-1.6,0-3.2,0-4.8
			c0-0.1,0.1-0.1,0.2-0.2c-0.9-0.2-1.1-1.1-1.5-1.7h-4.5v20.5h12.7c0,0.3,0,0.9,0,1c1.2,0.1,2.1,0.1,3.2,0.1l3.3,0l0-8.9l-0.4,0.5
			c-0.4,0.5-1,0.8-1.6,0.8c-0.4,0-0.9-0.1-1.2-0.4c0,0-0.1-0.1-0.1-0.1c-0.3-0.4-0.5-0.9-0.5-1.4c0-0.6,0.2-1.2,0.6-1.6
			C293.1,78.2,293.5,77.9,294.1,77.9z M289.5,87h-6.9V76.9c0,0,0,0,0,0c0,0,0.1-0.1,0.1-0.1h6.8V87z"/>
		<path d="M318.7,71.4v9.7h-5.9V90h6.9v4.6h-2.6c0.5-1,0.2-1.7-0.4-2.4c-0.3-0.3-0.8-0.5-1.2-0.5l0,0c-0.8,0-1.6,0.4-2.1,1.1
			c0,0,0,0,0,0c-0.3,0.3-0.4,0.8-0.3,1.2c0,0.2,0.1,0.4,0.2,0.6h-6.2c0-0.4,0-0.8,0-1.2c0-3.8,0-7.6,0-11.3c0-0.7-0.1-1,0-1.4
			c0-0.1,0.5,0.2,0.8,0.1c0.5-0.2,0.5-0.7,0.5-0.9c0-0.2-0.2-0.4-0.5-0.6h5.6v-5.6h-6.7c-0.1-0.7,0-1.4,0-2.2H318.7z"/>
		<path d="M296.8,84.4c0,0-0.1,0-0.1,0c0,0,0,0,0,0v9.1h5.3c0,0,0,0,0,0c0.2,0.4,0,0.7,0.2,1h4.2V84.4
			C303.1,84.4,299.9,84.4,296.8,84.4z M302,91.6h-1.3V86c0.4-0.1,0.8,0,1.3,0V91.6z"/>
		<path d="M303.9,71.4c0,1.1,0,2.1,0,3.2c0.8,0,1.5,0,2.4,0c0,0.6,0,1.2,0,1.9c-3.2,0-6.3,0-9.6,0c-0.1-0.5,0-1.2-0.1-1.8
			c1,0,1.9,0,3,0c0-0.6,0-1.1,0-1.6c0-0.5,0-1.1,0-1.6C301,71.4,302.4,71.4,303.9,71.4z"/>
		<path d="M297.1,83c0-1.1,0-1.4,0-2.1c2.4,0,4.8,0,7.2,0c0.2,0.6,0.7,0.8,1.4,0.8c0,0.4,0,0.8,0,1.3C303,83,299.9,83,297.1,83z"/>
		<path d="M297.4,79.7v-1.8h7.5c0,0-0.1,0.1-0.1,0.1c-0.6,0.4-0.9,1-0.9,1.7v0H297.4z"/>
	</g>
</g>
<g id="Layer_3">
	<path d="M15,70h14.1l1.3,4.7L28,75.4l-1.9-2.7h-2.2v10c0,0,0.3,1.7,2.7,1.7v2h-8.9v-1.9c0,0,1.9-0.2,2.5-1.6V72.5
		c0,0-2.5-0.2-3,1.3l-1,1.8l-2.8-0.8L15,70z"/>
	<path d="M31.3,70v2.3h1.3v11.9h-1.3v2.2H38v-2c0,0-1.7,0.3-2-1.2v-4.1c0,0,0.3-2.2,2.9-2.1c2.6,0.1,1.9,1.8,1.9,1.8s1,5.9-1.1,5.6
		l-0.2,2.1h6.7v-1.9c0,0-1.9-0.3-1.5-1.4l0.2-6.2c0,0-1.7-3.5-4.6-2.9c-3,0.7-3.8,1.4-3.8,1.4l0.1-5.5H31.3z"/>
	<path d="M58.2,82.5c0,0-2.4,2.7-4.8,2.2C51,84.2,51,81.8,51,81.8l8.6-0.2c0.9-7-6.1-7.3-6.1-7.3c-2.8-0.2-7.1,2.4-6.7,6.4
		c0.3,4,1.6,6,6.7,6.5c5.1,0.5,6.8-3.2,6.8-3.2L58.2,82.5z M53.4,76.7c2.5,0.3,2.6,2.8,2.6,2.8h-5.2C50.8,79.5,51,76.5,53.4,76.7z"
		/>
	<path d="M14.2,89.7h31.9l1.4,9.7l-5.1,1.2c0,0-1.4-6.1-5.4-5.5H26.6l0.1,9.9h8.2c0,0,1.5,0.8,1.7-3.6l4.8-0.3l0.1,12.4h-4.7
		c0,0,0.5-3.5-2.9-3.6l-3.5,0.3c0,0-0.6-3.9-4.6-3.1s-3.4,4.3-3.4,4.3s-0.3,3.5,4,3.6l0.1,5.2c0,0,0.2,1.8,3.9,1.2v5.5H14.2v-5.4
		c0,0,4,0.2,4.1-2.6l0.1-22.4c0,0-1.4-3-4.1-1.9V89.7z"/>
	<path d="M46.2,100.6h11.5v17.7c0,0,0.7,3.8,4.7,3.2s5.5-4.4,6-5.4V106c0,0,0.1-1.9-3.2-1.4l-0.1-4h8.6c0,0-0.8,1.7-0.7,2.6
		c0.2,0.9,0.6,2.8,2.5,3.2V121c0,0-0.2,1.4,1,1.5c1.2,0.1,2.6,0,2.6,0v4.6H68.1l0.1-3.1c0,0-2.9,4.3-9.4,3.7c0,0-8.4,1.3-9.1-7.4
		v-13.9c0,0-0.4-1.6-3.5-1.7V100.6z"/>
	<path d="M80.1,100.6c0,0,1.5,1,1.1,2.6c0,0-0.2,1.2-1.1,2H84v18.5c0,0,1.8,4.5,5.5,4.6c0,0,4.5,1.3,10.5-3.8l-2-4.4
		c0,0-5.1,4.6-6.5,1.5l-0.1-16.5h6.8l0.1-4.6h-6.9v-8.9h-4L84,96.5l0.1,4.1H80.1z"/>
	<path d="M100.2,104.6v-4h10.9v17c0,0,0.7,5,4.7,4.4c4-0.6,5.9-2.9,6-5v-11.4c0,0-0.1-1.1-2.8-1v-4h10.3v20.1c0,0,0.4,2.5,3.3,2v4.2
		h-10.7l-0.1-2.8c0,0-2.5,3.9-9.4,3.7s-8.7-4.1-8.8-8.2c0,0,3.5-0.6,3.6-3.7c0.1-3.1-1.3-4.7-3.7-4.5v-4.8
		C103.6,106.6,103.7,104.7,100.2,104.6z"/>
	<path d="M134,100.6v4.6c0,0,3.8-0.5,4,1.4v14.6c0,0,0.5,1.1-4,1v4.8h11.7c0,0,0.5-2.2,3.9-1.4v-2.9c0,0-4.3,0.7-4.2-2v-13.4
		c0,0,2.4-3.7,4.7-2.6c0,0,4.2,1.2,3.9,5.8l3.7-7.4c0,0-2.3-3.2-6.6-3.2c0,0-2.8-0.8-5.5,2.7l-0.1-1.9H134z"/>
	<path d="M181.3,117.1c0,0-3.1,6-10,5.1c-6.9-0.9-6.1-6.7-6.1-6.7h20.2c0,0,1.2-14.8-13.8-15.7c0,0-13.4-2-14.9,13.7
		c-1.5,15.5,23.2,19.7,28.8,7.2L181.3,117.1z M171.3,104.6c5.4,0.3,5.8,6.7,5.8,6.7h-11.9C165.4,109.5,166,104.3,171.3,104.6z"/>
	<ellipse cx="242.5" cy="94.2" rx="4.9" ry="4.7"/>
	<path d="M220.6,89.8h-25.8v4.7c4.4,0.2,3.5,3.5,3.5,3.5c1.8,0,4.9,0.4,4.7,4.1c-0.2,3.7-4.1,3.9-4.1,3.9l-0.1,13.8
		c-0.5,2.2-3.8,1.6-3.8,1.6l-0.1,5.6l23.6,0c8.1,0.2,9.9-5.2,9.9-5.2c-1-0.3-3.9-2.4-1.9-5.6c2-3.2,5.5-1.3,5.5-1.3
		C236.8,92.6,220.6,89.8,220.6,89.8z M222.6,113.7c-1.4,7-6.1,7.9-6.1,7.9l-8,0c-1.1,0.3-1.4-1.2-1.4-1.2V95.3h10.1
		C225.7,96.4,222.7,112.9,222.6,113.7z"/>
	<path d="M234.7,100.5h11.4v20c0,0-0.2,2.5,4.7,2.1v4.3h-16.7v-4.7c0,0,5.1,0.5,4.8-2l-0.1-14.1c0,0-0.2-2.4-4.2-1.5l0-4.1H234.7z"
		/>
	<path d="M280.8,122c-3.4,0.7-2.8-1.8-2.8-1.8v-14.9c-1.2-2.5-2.7-5.4-12-5.5c-9.3-0.2-13,3.5-13,3.5l2,6.7l3.7-0.3
		c0,0,0.1-5.6,6-5.8c5.9-0.2,5.9,2.6,5.9,2.6l0.1,3.4h-5.5c-5.9-0.3-13.2,2.2-13.3,8.5c-0.1,6.2,2.8,6.3,2.8,6.3s2-2,4.5-1.5
		s2.5,4.5,2.5,4.5c5.8,0.6,8.8-4.3,8.8-4.3c-0.1,2.3,1.5,3.3,1.5,3.3c4.5,2.5,9.5-0.6,9.5-0.6L280.8,122z M268,119.9
		c-2.7,3-8.3,3.7-7.9-0.8c0.4-4.4,10.4-5.4,10.4-5.4C269.5,119.3,268,119.9,268,119.9z"/>
	<path d="M282.1,126.9v-4.8h2.5c0,0,1.6-0.2,1.5-1.6l0-2.9c0,0,3.2-0.6,3.4-3.4c0.2-2.8-1.1-4.5-3.3-4.6l-0.1-3.4
		c0,0,0.7-0.9-2.5-0.8l-1.5,0v-4.8h11.5v2c0,0,1.4-3,5.4-2.7s6.3,2.5,6.3,2.5l-2.4,8.6l-3.9-1c0,0,0.8-4.8-2-4.7
		c-2.8,0.2-3.3,2.9-3.3,2.9v13.2c0,0-0.2,1.6,3.9,1.5l0.1,4H282.1z"/>
	<path d="M306.3,100.5h15v3.9c0,0-2.5,0.1-2.8,0.9l5.1,11.2l5.7-10.7c0,0,0.1-1.1-1.1-1.2l-1.6-0.1l0.1-4.1h12.8v4.1
		c0,0-2.9-0.3-3.4,1.2l-13.2,24.5c0,0-5.2,5-11.8,0.3l-2-1.5l2.9-7.3l4.2,1.1l-0.2,3.3c0,0,2.3,3,3.6-0.8c0,0-0.6-3.3-3.1-6.6
		c0,0,3.1-3.3,1.2-6.3c-1.9-3-5.2-1.1-5.2-1.1s-1.4-7.4-6.1-6.7V100.5z"/>
</g>
</svg>
