<svg xmlns="http://www.w3.org/2000/svg" viewBox="0 0 353 137" enable-background="new 0 0 353 137"><path d="M243.3 71.6h8.6c.2.6 0 1.7.1 2.3h-4.4c-.3 0-.5-.1-.8.2 1.3 2.1 2.3 4.4 3.5 6.6.4.8.7 1.6.6 2.6-.1 1.2 0 2.3 0 3.5 0 .2.1.5-.1.6-.3-.1-.3-.2-.5-.4-.3-.5-.7-.9-1.1-1.3-1.2-1.5-2.2-3.1-3.5-4.7-.6-.8-1.1-1.7-1.8-2.3-.1-.1-.3-.2-.5-.1v6.6c-1.3.2-2.1.9-2.3 2.2h-3.7v-9.3c-2.5 3.2-4.8 6.1-7.3 9.4v-5.3c0-.3.1-.6.3-.8l3.5-6.9v-.3s0-.1-.1-.1l-.1-.1h-4.9v-2.1h7.1c.2.4.7.6 1.1.8.7.3 1.9-.3 2.3-.9.4-.7.3-1.7-.2-2.4-.7-.8-1.4-.9-2.3-.5-.5.2-1 .3-1.5.3h-4.6v-1.8h6.7l.1-3h5.9v2.9h6.7v1.9h-6.6l-.2 2.4zm23.8 7.2v5.3h8.9v1.9h-3.6c-.2.3-.4.6-.1.9l.7 1.1 1.7 3c.1.1.1.3.1.5v4.9l-.1.2c-.3.1-.4-.1-.6-.3-.8-1.2-1.7-2.2-2.6-3.4-.5-.7-.7-.9-1.3-1.6-.9-.8-1.5-2-2.5-2.8-.1-.1-.2-.1-.5-.1v8.6h-3.5c-.5-.8-1-1.7-2.2-1.6v-7.5c-.7.9-1.2 1.4-1.7 2.1-.5.6-1.1 1.1-1.5 1.8l-1.6 1.9c-.8 1-1.5 1.9-2.7 2.9v-4.7c0-.4-.1-1.1.3-1.4l.4-.4c.7.6 1.4 1.1 2.4.6.8-.4 1.3-1 1.3-1.9 0-1.2-.9-1.8-1.9-2.1.2-.2.4-.3.2-.7h-3.7v-1.9h8.6v-5.4h-1.3v4.8h-1.3c-.8-1.6-1.1-3.4-2.1-4.9h-3.1v-1.8h7.8l.1-3h3.9c.2.8 1 1.1 1.7 1.4v1.5h8.1l.1 1.9h-3.4c-.6 1.7-1.1 3.3-1.8 4.9h-1.5v-4.7h-1.7zm27-.9c.9-.1 1.5.6 1.9 1.4v-11.1h-10.5c.2.9-.8 1.1-1.1 1.8h5.1v4.8h-6.9v-4.8c0-.1.1-.1.2-.2-.9-.2-1.1-1.1-1.5-1.7h-4.5v20.5h12.7v1c1.2.1 2.1.1 3.2.1h3.3v-8.9l-.4.5c-.4.5-1 .8-1.6.8-.4 0-.9-.1-1.2-.4l-.1-.1c-.3-.4-.5-.9-.5-1.4 0-.6.2-1.2.6-1.6.3-.4.7-.7 1.3-.7zm-4.6 9.1h-6.9v-10.1l.1-.1h6.8v10.2zm29.2-15.6v9.7h-5.9v8.9h6.9v4.6h-2.6c.5-1 .2-1.7-.4-2.4-.3-.3-.8-.5-1.2-.5-.8 0-1.6.4-2.1 1.1-.3.3-.4.8-.3 1.2 0 .2.1.4.2.6h-6.2v-12.5c0-.7-.1-1 0-1.4 0-.1.5.2.8.1.5-.2.5-.7.5-.9 0-.2-.2-.4-.5-.6h5.6v-5.6h-6.7c-.1-.7 0-1.4 0-2.2h11.9zm-21.9 13h-.1v9.1h5.3l.2 1h4.2v-10.1h-9.6zm5.2 7.2h-1.3v-5.6c.4-.1.8 0 1.3 0v5.6zm1.9-20.2v3.2h2.4v1.9h-9.6l-.1-1.8h3v-3.2c1.4-.1 2.8-.1 4.3-.1zm-6.8 11.6v-2.1h7.2c.2.6.7.8 1.4.8v1.3h-8.6zm.3-3.3v-1.8h7.5l-.1.1c-.6.4-.9 1-.9 1.7h-6.5zm-282.4-9.7h14.1l1.3 4.7-2.4.7-1.9-2.7h-2.2v10s.3 1.7 2.7 1.7v2h-8.9v-1.9s1.9-.2 2.5-1.6v-10.4s-2.5-.2-3 1.3l-1 1.8-2.8-.8 1.6-4.8zm16.3 0v2.3h1.3v11.9h-1.3v2.2h6.7v-2s-1.7.3-2-1.2v-4.1s.3-2.2 2.9-2.1c2.6.1 1.9 1.8 1.9 1.8s1 5.9-1.1 5.6l-.2 2.1h6.7v-1.9s-1.9-.3-1.5-1.4l.2-6.2s-1.7-3.5-4.6-2.9c-3 .7-3.8 1.4-3.8 1.4l.1-5.5h-5.3zm26.9 12.5s-2.4 2.7-4.8 2.2l-2.4-2.9 8.6-.2c.9-7-6.1-7.3-6.1-7.3-2.8-.2-7.1 2.4-6.7 6.4.3 4 1.6 6 6.7 6.5l6.8-3.2-2.1-1.5zm-4.8-5.8c2.5.3 2.6 2.8 2.6 2.8h-5.2s.2-3 2.6-2.8zm-39.2 13h31.9l1.4 9.7-5.1 1.2s-1.4-6.1-5.4-5.5h-10.4l.1 9.9h8.2s1.5.8 1.7-3.6l4.8-.3.1 12.4h-4.7s.5-3.5-2.9-3.6l-3.5.3s-.6-3.9-4.6-3.1l-3.4 4.3s-.3 3.5 4 3.6l.1 5.2s.2 1.8 3.9 1.2v5.5h-16.2v-5.4s4 .2 4.1-2.6l.1-22.4s-1.4-3-4.1-1.9v-4.9zm32 10.9h11.5v17.7s.7 3.8 4.7 3.2 5.5-4.4 6-5.4v-10.1s.1-1.9-3.2-1.4l-.1-4h8.6s-.8 1.7-.7 2.6c.2.9.6 2.8 2.5 3.2v14.6s-.2 1.4 1 1.5c1.2.1 2.6 0 2.6 0v4.6h-11l.1-3.1s-2.9 4.3-9.4 3.7c0 0-8.4 1.3-9.1-7.4v-13.9s-.4-1.6-3.5-1.7v-4.1zm33.9 0s1.5 1 1.1 2.6c0 0-.2 1.2-1.1 2h3.9v18.5s1.8 4.5 5.5 4.6c0 0 4.5 1.3 10.5-3.8l-2-4.4s-5.1 4.6-6.5 1.5l-.1-16.5h6.8l.1-4.6h-6.9v-8.9h-4l-3.4 4.9.1 4.1h-4zm20.1 4v-4h10.9v17s.7 5 4.7 4.4c4-.6 5.9-2.9 6-5v-11.4s-.1-1.1-2.8-1v-4h10.3v20.1s.4 2.5 3.3 2v4.2h-10.7l-.1-2.8s-2.5 3.9-9.4 3.7-8.7-4.1-8.8-8.2c0 0 3.5-.6 3.6-3.7.1-3.1-1.3-4.7-3.7-4.5v-4.8c.1 0 .2-1.9-3.3-2zm33.8-4v4.6s3.8-.5 4 1.4v14.6s.5 1.1-4 1v4.8h11.7s.5-2.2 3.9-1.4v-2.9s-4.3.7-4.2-2v-13.4s2.4-3.7 4.7-2.6c0 0 4.2 1.2 3.9 5.8l3.7-7.4s-2.3-3.2-6.6-3.2c0 0-2.8-.8-5.5 2.7l-.1-1.9h-11.5zm47.3 16.5s-3.1 6-10 5.1c-6.9-.9-6.1-6.7-6.1-6.7h20.2s1.2-14.8-13.8-15.7c0 0-13.4-2-14.9 13.7-1.5 15.5 23.2 19.7 28.8 7.2l-4.2-3.6zm-10-12.5c5.4.3 5.8 6.7 5.8 6.7h-11.9c.2-1.8.8-7 6.1-6.7z"/><ellipse cx="242.5" cy="94.2" rx="4.9" ry="4.7"/><path d="M220.6 89.8h-25.8v4.7c4.4.2 3.5 3.5 3.5 3.5 1.8 0 4.9.4 4.7 4.1-.2 3.7-4.1 3.9-4.1 3.9l-.1 13.8c-.5 2.2-3.8 1.6-3.8 1.6l-.1 5.6h23.6c8.1.2 9.9-5.2 9.9-5.2-1-.3-3.9-2.4-1.9-5.6 2-3.2 5.5-1.3 5.5-1.3 4.8-22.3-11.4-25.1-11.4-25.1zm2 23.9c-1.4 7-6.1 7.9-6.1 7.9h-8c-1.1.3-1.4-1.2-1.4-1.2v-25.1h10.1c8.5 1.1 5.5 17.6 5.4 18.4zm12.1-13.2h11.4v20s-.2 2.5 4.7 2.1v4.3h-16.7v-4.7s5.1.5 4.8-2l-.1-14.1s-.2-2.4-4.2-1.5v-4.1h.1zm46.1 21.5c-3.4.7-2.8-1.8-2.8-1.8v-14.9c-1.2-2.5-2.7-5.4-12-5.5-9.3-.2-13 3.5-13 3.5l2 6.7 3.7-.3s.1-5.6 6-5.8c5.9-.2 5.9 2.6 5.9 2.6l.1 3.4h-5.5c-5.9-.3-13.2 2.2-13.3 8.5-.1 6.2 2.8 6.3 2.8 6.3s2-2 4.5-1.5l2.5 4.5c5.8.6 8.8-4.3 8.8-4.3-.1 2.3 1.5 3.3 1.5 3.3 4.5 2.5 9.5-.6 9.5-.6l-.7-4.1zm-12.8-2.1c-2.7 3-8.3 3.7-7.9-.8.4-4.4 10.4-5.4 10.4-5.4-1 5.6-2.5 6.2-2.5 6.2zm14.1 7v-4.8h2.5s1.6-.2 1.5-1.6v-2.9s3.2-.6 3.4-3.4c.2-2.8-1.1-4.5-3.3-4.6l-.1-3.4s.7-.9-2.5-.8h-1.5v-4.8h11.5v2s1.4-3 5.4-2.7l6.3 2.5-2.4 8.6-3.9-1s.8-4.8-2-4.7c-2.8.2-3.3 2.9-3.3 2.9v13.2s-.2 1.6 3.9 1.5l.1 4h-15.6zm24.2-26.4h15v3.9s-2.5.1-2.8.9l5.1 11.2 5.7-10.7s.1-1.1-1.1-1.2l-1.6-.1.1-4.1h12.8v4.1s-2.9-.3-3.4 1.2l-13.2 24.5s-5.2 5-11.8.3l-2-1.5 2.9-7.3 4.2 1.1-.2 3.3s2.3 3 3.6-.8c0 0-.6-3.3-3.1-6.6 0 0 3.1-3.3 1.2-6.3-1.9-3-5.2-1.1-5.2-1.1s-1.4-7.4-6.1-6.7v-4.1z"/></svg>