<svg xmlns="http://www.w3.org/2000/svg" id="images" width="720" height="720" viewBox="0 0 720 720">
  <style>
    .st0{fill:#F4CDA6;stroke:#000000;stroke-width:1.2543;stroke-miterlimit:10;} .st1{fill:url(#SVGID_1_);} .st2{fill:#51668E;stroke:#000000;stroke-width:1.2543;stroke-miterlimit:10;} .st3{fill:#2D3854;stroke:#000000;stroke-width:1.2543;stroke-miterlimit:10;} .st4{fill:none;stroke:#000000;stroke-width:1.2543;stroke-miterlimit:10;} .st5{fill:#FFFFFF;stroke:#000000;stroke-width:1.2543;stroke-miterlimit:10;} .st6{fill:#9BA797;stroke:#000000;stroke-width:1.2543;stroke-miterlimit:10;} .st7{fill:#6A947A;stroke:#000000;stroke-width:1.2543;stroke-miterlimit:10;} .st8{fill:#5E687C;stroke:#000000;stroke-width:1.2543;stroke-miterlimit:10;} .st9{fill:#8C9EB3;stroke:#000000;stroke-width:1.2543;stroke-miterlimit:10;} .st10{fill:#4E596B;stroke:#000000;stroke-width:1.2543;stroke-miterlimit:10;} .st11{fill:#9CA8BE;stroke:#000000;stroke-width:1.2543;stroke-miterlimit:10;} .st12{stroke:#FFFFFF;stroke-width:0.315;stroke-miterlimit:10;} .st13{fill:#043B56;stroke:#000000;stroke-width:1.2131;stroke-miterlimit:10;} .st14{fill:#F8F7F8;} .st15{fill:none;} .st16{fill:#4E596B;} .st17{fill:#F5F5F5;} .st18{fill:#F8F8F8;} .st19{fill:#8DC748;} .st20{fill:#99979B;stroke:#000000;stroke-width:0.6271;stroke-miterlimit:10;} .st21{fill:#444244;stroke:#000000;stroke-width:0.6271;stroke-miterlimit:10;} .st22{fill:#747076;stroke:#000000;stroke-width:0.6271;stroke-miterlimit:10;} .st23{fill:#FBFBFB;} .st24{fill:#608BBF;}
  </style>
  <g id="bg">
    <path id="fingers_7_" d="M466.4 485.7l147.5 105.4 65.5 127.2-213.3.9.3-138.4-16.7-21.1 14.2-76.5z" class="st0"/>
    <path id="black" d="M112.3 471.5l26.5 37.6h285.4l29.5-28.4L459.5-.5h-11.8v463.2h-327V-.5h-8.4z"/>
    <linearGradient id="SVGID_1_" x1="284.23" x2="284.23" y1="462.69" y2="-.54" gradientUnits="userSpaceOnUse">
      <stop offset="0" stop-color="#04406E"/>
      <stop offset="1" stop-color="#3B704D"/>
    </linearGradient>
    <path d="M120.7-.5h327v463.2h-327z" class="st1"/>
    <path id="blue" d="M112.3-.5h-9.9l-.9 528.1h362.4V-.5h-4.4l-5.8 481.2-29.5 28.4H138.8l-26.5-37.6z" class="st2"/>
    <path id="blue_1_" d="M101.5 527.6l13.1 24.4 11.4-7.4 22.7.9v35.3h220.9v-35.7h42.8v12.2l45.4 2.6s10.5 7 8.3 34.9 0 124.5 0 124.5H101.5v-155l13.1-12.2-13.1-24.5z" class="st2"/>
    <path id="blue_2_" d="M148.7 545.5v-6.9h220.6l.3 42.2H148.7z" class="st2"/>
    <path id="blue_3_" d="M451.4 559.5l12.5-31.9H101.5l13.1 24.4 11.4-7.4 22.7.9v-6.9h220.6l.3 6.5h42.8v12.2z" class="st3"/>
    <path id="fginer" d="M101.5 580.8s23.1-20.5 47.2-21.3" class="st4"/>
    <path id="white" d="M125.9 436l.8-416.2h314.1V436z" class="st5"/>
    <path id="green" d="M126.7 42.2h314.2v26.5H126.7z" class="st6"/>
    <path id="green_1_" d="M126.7 68.7h314.2V95H126.7z" class="st6"/>
    <path id="green_2_" d="M126.9 18.2h314.2V42H126.9z" class="st7"/>
    <ellipse id="button" cx="282.7" cy="725.6" class="st8" rx="82.2" ry="86.2"/>
    <ellipse id="button_1_" cx="281.1" cy="724.1" class="st9" rx="70.1" ry="73.5"/>
    <path id="button_2_" d="M196.1 719.2s12.7-53.3 41.8-68.6c0 0 7.4-9.3-11.9-9.6h-79.8s-13.5 2.1-15.1 16.8c-1.6 14.7 0 61.4 0 61.4h65z" class="st10"/>
    <path id="button_3_" d="M190.6 718.3s10.4-49.5 34.1-63.7c0 0 6-8.6-9.7-8.9h-65.3s-11 2-12.4 15.6c-1.3 13.6 0 57 0 57h53.3z" class="st11"/>
    <path id="button_4_" d="M370.9 719.2s-12.7-53.3-41.8-68.6c0 0-7.4-9.3 11.9-9.6h79.8s13.5 2.1 15.1 16.8c1.6 14.7 0 61.4 0 61.4h-65z" class="st10"/>
    <path id="button_5_" d="M376.4 718.3s-10.4-49.5-34.1-63.7c0 0-6-8.6 9.7-8.9h65.3s11 2 12.4 15.6c1.3 13.6 0 57 0 57h-53.3z" class="st11"/>
    <path id="blye" d="M112.3 591.1h339.2v9.4H112.3z" class="st3"/>
    <path d="M355.8 7c0 3.3-1.2 5.2-3.4 5.2-1.9 0-3.2-1.8-3.3-5 0-3.3 1.4-5.1 3.4-5.1 2.1 0 3.3 1.8 3.3 4.9zm-5.3.2c0 2.5.8 4 2 4 1.3 0 2-1.6 2-4.1 0-2.4-.6-4-2-4-1.2 0-2 1.4-2 4.1zm12.1-4c-.3 0-.6 0-1 .1-2.1.3-3.2 1.8-3.4 3.5.5-.6 1.3-1.1 2.4-1.1 1.7 0 3 1.3 3 3.2 0 1.8-1.2 3.5-3.3 3.5-2.1 0-3.4-1.6-3.4-4.2 0-1.9.7-3.4 1.7-4.4.8-.8 1.9-1.3 3.1-1.4.4-.1.7-.1 1-.1v.9zm-.4 5.6c0-1.4-.8-2.2-2-2.2-.8 0-1.6.5-1.9 1.2-.1.1-.1.3-.1.6 0 1.6.8 2.8 2.2 2.8 1 0 1.8-1 1.8-2.4zm2.6-2.8c0-.6.4-.9.9-.9s.9.4.9.9-.3.9-.9.9c-.5 0-.9-.4-.9-.9zm0 5.3c0-.6.4-.9.9-.9s.9.4.9.9-.3.9-.9.9c-.5 0-.9-.4-.9-.9zm8.9-7.9H370l-.4 2.5h.8c.8 0 1.5.2 2.1.5.8.4 1.4 1.3 1.4 2.5 0 1.9-1.5 3.3-3.6 3.3-1.1 0-2-.3-2.4-.6l.3-1c.4.2 1.2.5 2.1.5 1.2 0 2.3-.8 2.3-2.1s-.9-2.1-2.8-2.1c-.6 0-1 0-1.4.1l.6-4.7h4.7v1.1zm8.2-1.1v.9l-4.3 8.9h-1.4l4.2-8.6h-4.8V2.3h6.3z" class="st12"/>
    <path id="button_6_" d="M126.7 436.6h105.1v26H126.7z" class="st13"/>
    <path id="button_7_" d="M335.8 436.6h105.1v26H335.8z" class="st13"/>
    <path d="M155.4 441.9c.9-.2 2.2-.3 3.6-.3 2 0 3.2.3 4.2 1.1.8.6 1.3 1.5 1.3 2.7 0 1.5-1 2.8-2.6 3.3v.1c1.4.3 3.1 1.5 3.1 3.8 0 1.3-.5 2.3-1.3 3.1-1 1-2.8 1.4-5.2 1.4-1.4 0-2.4-.1-3.1-.2v-15zm1.9 6.2h1.8c2.1 0 3.3-1.1 3.3-2.6 0-1.8-1.3-2.5-3.3-2.5-.9 0-1.4.1-1.7.1v5zm0 7.3c.4.1 1 .1 1.7.1 2 0 3.9-.7 3.9-3 0-2.1-1.8-2.9-3.9-2.9h-1.6v5.8zm17.9-1.1c0 .9 0 1.9.2 2.6h-1.8l-.2-1.4h-.1c-.6.9-1.8 1.6-3.3 1.6-2.2 0-3.3-1.6-3.3-3.1 0-2.6 2.4-4.1 6.6-4.1v-.2c0-.9-.2-2.5-2.5-2.5-1 0-2.1.3-2.9.8l-.5-1.3c.9-.6 2.2-.9 3.6-.9 3.3 0 4.2 2.3 4.2 4.5v4zm-1.9-3c-2.2 0-4.6.3-4.6 2.5 0 1.3.9 1.9 1.9 1.9 1.4 0 2.4-.9 2.7-1.8.1-.2.1-.5.1-.6v-2zm13 5.2c-.5.2-1.7.6-3.1.6-3.3 0-5.5-2.2-5.5-5.6 0-3.4 2.3-5.8 5.9-5.8 1.2 0 2.2.3 2.8.6l-.5 1.5c-.5-.2-1.2-.5-2.3-.5-2.5 0-3.9 1.9-3.9 4.1 0 2.5 1.6 4.1 3.8 4.1 1.1 0 1.9-.3 2.4-.5l.4 1.5zm4.3-5.5c.3-.4.7-.9 1-1.2l3.2-3.8h2.4l-4.2 4.5 4.8 6.4h-2.4l-3.8-5.2-1 1.1v4.1h-2v-16h2V451zm174-9.1c1-.2 2.4-.3 3.8-.3 2.1 0 3.5.4 4.4 1.2.7.7 1.2 1.7 1.2 2.9 0 2-1.3 3.3-2.9 3.9v.1c1.2.4 1.9 1.5 2.2 3.1.5 2.1.9 3.6 1.2 4.2h-2c-.2-.5-.6-1.7-1-3.6-.5-2.1-1.3-2.9-3.1-3h-1.9v6.6h-2v-15.1zm2 6.9h2c2.1 0 3.4-1.2 3.4-2.9 0-2-1.4-2.8-3.5-2.8-1 0-1.6.1-1.9.2v5.5zm11.3 3c0 2.7 1.7 3.8 3.8 3.8 1.4 0 2.3-.2 3-.6l.4 1.4c-.7.3-1.9.7-3.7.7-3.4 0-5.4-2.2-5.4-5.5s1.9-5.9 5.1-5.9c3.6 0 4.5 3.1 4.5 5.1 0 .4 0 .7-.1.9h-7.6zm5.8-1.4c0-1.2-.5-3.2-2.8-3.2-2 0-2.9 1.8-3.1 3.2h5.9zm4.4-.9c0-1.4 0-2.5-.1-3.6h1.8l.1 1.9c.8-1.3 2.1-2.1 3.9-2.1 2.7 0 4.7 2.2 4.7 5.5 0 3.9-2.4 5.9-5 5.9-1.4 0-2.7-.6-3.4-1.7v5.9h-2v-11.8zm2 2.9c0 .3 0 .6.1.8.4 1.4 1.6 2.3 3 2.3 2.1 0 3.3-1.7 3.3-4.2 0-2.2-1.2-4-3.3-4-1.4 0-2.6.9-3 2.4-.1.2-.1.5-.1.8v1.9zm10.9-11.6h2v16h-2v-16zm6.1 5.2l2.4 6.5c.3.7.5 1.6.7 2.2.2-.7.4-1.5.7-2.3l2.2-6.4h2.1l-3 7.8c-1.4 3.8-2.4 5.7-3.8 6.8-1 .8-1.9 1.2-2.4 1.3l-.5-1.6c.5-.2 1.2-.5 1.7-1 .5-.4 1.2-1.2 1.7-2.2.1-.2.2-.4.2-.5s0-.3-.2-.5l-4-10.1h2.2zM235.9 53.3c.8-.1 1.7-.2 2.7-.2 1.9 0 3.2.4 4 1.2.9.8 1.4 2 1.4 3.6s-.5 3-1.4 3.9c-.9.9-2.5 1.4-4.4 1.4-.9 0-1.7 0-2.3-.1v-9.8zm1.3 8.8c.3 0 .8.1 1.3.1 2.8 0 4.2-1.5 4.2-4.2 0-2.3-1.3-3.8-4-3.8-.7 0-1.2.1-1.5.1v7.8zm9.3-2.3c0 1.8 1.1 2.5 2.5 2.5.9 0 1.5-.2 2-.4l.2.9c-.5.2-1.3.5-2.4.5-2.2 0-3.5-1.5-3.5-3.6 0-2.2 1.3-3.8 3.4-3.8 2.4 0 3 2 3 3.4v.6h-5.2zm3.8-.9c0-.8-.3-2.1-1.8-2.1-1.3 0-1.9 1.2-2 2.1h3.8zm8.9 2.3c0 .8 0 1.4.1 2h-1.2L258 62c-.3.6-1.1 1.3-2.4 1.3-1.1 0-2.5-.6-2.5-3.1V56h1.3v3.9c0 1.4.4 2.3 1.6 2.3.9 0 1.5-.6 1.7-1.2.1-.2.1-.4.1-.7V56h1.3v5.2zm2 .6c.4.2 1.1.5 1.7.5.9 0 1.4-.5 1.4-1.1 0-.6-.4-.9-1.3-1.3-1.3-.5-1.9-1.2-1.9-2 0-1.2.9-2.1 2.5-2.1.7 0 1.4.2 1.7.4l-.3.9c-.3-.2-.8-.4-1.5-.4-.8 0-1.2.4-1.2 1s.4.9 1.3 1.2c1.2.5 1.9 1.1 1.9 2.1 0 1.3-1 2.2-2.7 2.2-.8 0-1.5-.2-2-.5l.4-.9zm14.4-3.3h-3.9v3.6h4.3v1.1h-5.6v-10h5.4v1.1h-4.1v3.1h3.9v1.1zm2.7-2.5l1 1.5c.3.4.5.8.7 1.2.2-.4.5-.8.7-1.2l1-1.5h1.4l-2.4 3.5 2.5 3.7h-1.5l-1.1-1.6c-.3-.4-.5-.8-.8-1.2-.2.4-.5.8-.8 1.2l-1 1.6h-1.4l2.5-3.6-2.4-3.5h1.6zm17.8 2.8c-.1-1.4-.2-3.1-.2-4.3-.4 1.2-.8 2.4-1.3 3.8l-1.8 4.8h-1l-1.6-4.7c-.5-1.4-.9-2.7-1.1-3.9 0 1.2-.1 2.9-.2 4.4l-.3 4.3h-1.2l.7-10h1.6l1.7 4.8c.4 1.2.7 2.3 1 3.4.3-1 .6-2.1 1.1-3.4l1.8-4.8h1.6l.6 10h-1.3l-.1-4.4zm8.6 2.6c0 .6 0 1.2.1 1.7h-1.2l-.1-.9c-.4.6-1.2 1.1-2.2 1.1-1.5 0-2.2-1-2.2-2.1 0-1.7 1.5-2.7 4.3-2.7v-.1c0-.6-.2-1.7-1.6-1.6-.7 0-1.4.2-1.9.5l-.3-.9c.6-.4 1.5-.6 2.4-.6 2.2 0 2.7 1.5 2.7 2.9v2.7zm-1.3-1.9c-1.4 0-3 .2-3 1.6 0 .9.6 1.2 1.2 1.2.9 0 1.6-.6 1.8-1.2 0-.1.1-.3.1-.4v-1.2zm8.5 3.4c-.3.2-1.1.4-2.1.4-2.2 0-3.6-1.5-3.6-3.6 0-2.2 1.5-3.8 3.8-3.8.8 0 1.5.2 1.8.4l-.3 1c-.3-.2-.8-.3-1.5-.3-1.6 0-2.5 1.2-2.5 2.7 0 1.7 1.1 2.7 2.5 2.7.7 0 1.2-.2 1.6-.3l.3.8zm1.5-10.2h1.3v4.5c.2-.4.5-.7.9-.9.4-.2.8-.4 1.3-.4 1 0 2.5.6 2.5 3v4.3h-1.3V59c0-1.2-.4-2.1-1.7-2.1-.8 0-1.5.6-1.7 1.3-.1.2-.1.4-.1.6v4.3h-1.3V52.7zm9.7 1.3c0 .4-.3.8-.8.8s-.8-.4-.8-.8.3-.8.8-.8c.4 0 .8.3.8.8zm-1.5 9.2V56h1.3v7.1h-1.3zm3.5-5.3c0-.8 0-1.3-.1-1.9h1.2l.1 1.2c.4-.7 1.2-1.3 2.4-1.3 1 0 2.5.6 2.5 3v4.3h-1.3V59c0-1.2-.4-2.1-1.7-2.1-.8 0-1.5.6-1.7 1.3-.1.2-.1.4-.1.6v4.3h-1.3v-5.2zm13.2 3.5c0 .6 0 1.2.1 1.7h-1.2l-.1-.9c-.4.6-1.2 1.1-2.2 1.1-1.5 0-2.2-1-2.2-2.1 0-1.7 1.5-2.7 4.3-2.7v-.1c0-.6-.2-1.7-1.6-1.6-.7 0-1.4.2-1.9.5l-.3-.9c.6-.4 1.5-.6 2.4-.6 2.2 0 2.7 1.5 2.7 2.9v2.7zm-1.2-1.9c-1.4 0-3 .2-3 1.6 0 .9.6 1.2 1.2 1.2.9 0 1.6-.6 1.8-1.2 0-.1.1-.3.1-.4v-1.2z" class="st14"/>
    <path d="M255.3 35.1v-9.6h1.4l3.1 4.9c.7 1.1 1.3 2.1 1.7 3.1-.1-1.3-.1-2.4-.1-3.9v-4h1.2v9.6h-1.3l-3-4.9c-.7-1.1-1.3-2.2-1.8-3.2.1 1.2.1 2.4.1 4v4.1h-1.3zm10.1-3.2c0 1.7 1.1 2.4 2.4 2.4.9 0 1.5-.2 1.9-.4l.2.9c-.4.2-1.2.4-2.3.4-2.1 0-3.4-1.4-3.4-3.5s1.2-3.7 3.2-3.7c2.3 0 2.9 2 2.9 3.2v.6h-4.9zm3.6-.9c0-.8-.3-2-1.7-2-1.3 0-1.8 1.2-1.9 2h3.6zm3.3-2.8l.9 3.5c.2.8.4 1.5.5 2.2.2-.7.4-1.4.6-2.2l1.1-3.5h1.1l1.1 3.4c.3.8.5 1.6.6 2.2.1-.7.3-1.4.5-2.2l1-3.5h1.2l-2.2 6.9h-1.1l-1.1-3.3-.6-2.3-.6 2.3-1.1 3.3h-1.1l-2.1-6.9h1.3zm21.2 2.7c-.1-1.3-.2-3-.2-4.1-.3 1.1-.7 2.3-1.2 3.6l-1.7 4.7h-.9l-1.6-4.6c-.5-1.4-.8-2.6-1.1-3.7 0 1.2-.1 2.8-.2 4.2l-.3 4.1h-1.2l.7-9.6h1.6l1.6 4.6c.4 1.2.7 2.2 1 3.2.3-1 .6-2 1-3.2l1.7-4.6h1.6l.6 9.6h-1.2l-.2-4.2zm4.1 1c0 1.7 1.1 2.4 2.4 2.4.9 0 1.5-.2 1.9-.4l.2.9c-.4.2-1.2.4-2.3.4-2.1 0-3.4-1.4-3.4-3.5s1.2-3.7 3.2-3.7c2.3 0 2.9 2 2.9 3.2v.6h-4.9zm3.6-.9c0-.8-.3-2-1.7-2-1.3 0-1.8 1.2-1.9 2h3.6zm2.6 2.9c.4.2 1 .5 1.7.5.9 0 1.3-.4 1.3-1s-.4-.9-1.3-1.3c-1.3-.5-1.8-1.1-1.8-2 0-1.1.9-2 2.4-2 .7 0 1.3.2 1.7.4l-.3.9c-.3-.2-.8-.4-1.4-.4-.7 0-1.1.4-1.1.9 0 .6.4.8 1.3 1.2 1.2.4 1.8 1 1.8 2.1 0 1.2-1 2.1-2.6 2.1-.8 0-1.5-.2-1.9-.5l.2-.9zm5.7 0c.4.2 1 .5 1.7.5.9 0 1.3-.4 1.3-1s-.4-.9-1.3-1.3c-1.3-.5-1.8-1.1-1.8-2 0-1.1.9-2 2.4-2 .7 0 1.3.2 1.7.4l-.3.9c-.3-.2-.8-.4-1.4-.4-.7 0-1.1.4-1.1.9 0 .6.4.8 1.3 1.2 1.2.4 1.8 1 1.8 2.1 0 1.2-1 2.1-2.6 2.1-.8 0-1.5-.2-1.9-.5l.2-.9zm10.6-.4c0 .6 0 1.2.1 1.7h-1.1l-.1-.9c-.4.5-1.1 1-2.1 1-1.4 0-2.1-1-2.1-2 0-1.7 1.5-2.6 4.1-2.6v-.1c0-.6-.2-1.6-1.6-1.6-.7 0-1.3.2-1.8.5l-.3-.8c.6-.4 1.4-.6 2.3-.6 2.1 0 2.6 1.4 2.6 2.8v2.6zm-1.2-1.9c-1.4 0-2.9.2-2.9 1.6 0 .8.5 1.2 1.2 1.2.9 0 1.5-.6 1.7-1.2 0-.1.1-.3.1-.4v-1.2zm9.2 2.5c0 1.6-.3 2.5-1 3.2-.7.6-1.7.8-2.5.8s-1.7-.2-2.3-.6l.3-1c.5.3 1.2.6 2 .6 1.3 0 2.2-.7 2.2-2.4v-.8c-.4.6-1.1 1.2-2.2 1.2-1.7 0-2.9-1.5-2.9-3.4 0-2.3 1.5-3.6 3.1-3.6 1.2 0 1.8.6 2.2 1.2v-1h1.1c0 .5-.1 1.1-.1 1.9v3.9zm-1.3-3.1c0-.2 0-.4-.1-.6-.2-.7-.8-1.3-1.8-1.3-1.2 0-2.1 1-2.1 2.6 0 1.4.7 2.5 2 2.5.8 0 1.5-.5 1.7-1.3.1-.2.1-.5.1-.7V31zm4 .9c0 1.7 1.1 2.4 2.4 2.4.9 0 1.5-.2 1.9-.4l.2.9c-.4.2-1.2.4-2.3.4-2.1 0-3.4-1.4-3.4-3.5s1.2-3.7 3.2-3.7c2.3 0 2.9 2 2.9 3.2v.6h-4.9zm3.7-.9c0-.8-.3-2-1.7-2-1.3 0-1.8 1.2-1.9 2h3.6z"/>
    <path id="fingers" d="M101.5 489.8S16.9 470.5 59.3 423c0 0 23-18.5 42.2-15.3v82.1z" class="st0"/>
    <path id="fingers_1_" d="M101.5 604s-71 6.6-84.8 19.4c-11.6 10.8-28.9 44.5-4.1 64.5 8.1 6.5 18.5 9.4 28.9 8.7l59.9-4.1V604z" class="st0"/>
    <path d="M263.9 84.3l-1 3.1h-1.3l3.4-10h1.5l3.4 10h-1.4l-1.1-3.1h-3.5zm3.3-1l-1-2.9c-.2-.6-.4-1.2-.5-1.8-.1.6-.3 1.2-.5 1.8l-1 2.9h3zm4.1-.7c0-.9 0-1.7-.1-2.3h1.2l.1 1.2c.5-.9 1.4-1.4 2.5-1.4 1.7 0 3 1.5 3 3.6 0 2.6-1.6 3.8-3.3 3.8-.9 0-1.8-.4-2.2-1.1v3.9h-1.3v-7.7zm1.3 1.9c0 .2 0 .4.1.5.2.9 1 1.5 2 1.5 1.4 0 2.2-1.1 2.2-2.8 0-1.4-.8-2.6-2.1-2.6-.9 0-1.7.6-2 1.6 0 .2-.1.4-.1.5v1.3zm7.1-2c0-.8 0-1.6-.1-2.2h1.1l.1 1.4c.3-1 1.1-1.6 2-1.6h.4v1.2h-.4c-.9 0-1.6.7-1.7 1.7v4.4h-1.3v-4.9zm6.3-4.2c0 .4-.3.8-.8.8s-.8-.4-.8-.8.3-.8.8-.8.8.3.8.8zm-1.4 9.2v-7.1h1.3v7.1h-1.3zM288 77h1.3v10.5H288V77zm6.3 10.5v-.8l1-1c2.5-2.3 3.6-3.6 3.6-5 0-1-.5-1.9-1.9-1.9-.9 0-1.6.4-2 .8l-.4-.9c.7-.5 1.6-1 2.7-1 2.1 0 2.9 1.4 2.9 2.8 0 1.8-1.3 3.2-3.3 5.2l-.8.7h4.3v1.1h-6.1zm9.3-5.1c-1.1-.5-1.5-1.3-1.5-2.2 0-1.5 1.3-2.6 3-2.6 1.9 0 2.8 1.2 2.8 2.4 0 .8-.4 1.7-1.6 2.2 1.2.5 1.9 1.3 1.9 2.5 0 1.7-1.4 2.8-3.3 2.8-2 0-3.2-1.2-3.2-2.6 0-1.1.8-2 1.9-2.5zm3.3 2.6c0-1.2-.8-1.7-2.1-2.1-1.1.3-1.7 1.1-1.7 2 0 1 .7 1.8 1.9 1.8s1.9-.8 1.9-1.7zm-3.6-4.8c0 1 .7 1.5 1.8 1.8.8-.3 1.5-.9 1.5-1.7 0-.8-.5-1.6-1.6-1.6-1.1-.1-1.7.6-1.7 1.5z" class="st14"/>
    <path id="fingers_2_" d="M465.5 629.1l37 32.8h-.6c4.9-5.3 9.9-10.4 15-15.5s10.3-10 15.6-14.8c2.7-2.4 5.4-4.8 8.1-7.1 2.8-2.3 5.6-4.5 8.5-6.7 1.4-1.1 2.9-2.1 4.4-3.1 1.5-1 3-1.9 4.6-2.8.8-.4 1.6-.9 2.4-1.3.8-.4 1.6-.8 2.5-1.1 1.7-.7 3.4-1.1 5.2-1.3-1.8.2-3.5.6-5.2 1.3-.8.3-1.6.7-2.5 1.1-.8.4-1.6.8-2.4 1.3-1.5.9-3.1 1.9-4.6 2.9-1.5 1-3 2-4.4 3.1-2.9 2.1-5.7 4.4-8.4 6.7s-5.4 4.7-8.1 7.1c-5.3 4.8-10.4 9.9-15.5 15-5 5.1-10 10.3-14.8 15.6l-.3.3-.3-.3-37-32.3.8-.9z"/>
    <path id="fingers_3_" d="M502.3 662.1s-.2.2-.4.5c-.3.3-.6.9-1.1 1.5-.2.3-.5.7-.7 1.1-.2.4-.5.9-.8 1.4-.3.5-.5 1-.8 1.6-.3.6-.6 1.1-.9 1.8-.3.6-.6 1.3-.9 1.9-.3.7-.5 1.4-.8 2.1-.3.7-.6 1.5-.8 2.3-.3.8-.5 1.6-.8 2.4-.4 1.7-1 3.3-1.4 5.1-.4 1.8-.9 3.5-1.1 5.3-.3 1.8-.7 3.6-.9 5.4-.2 1.8-.5 3.5-.6 5.2-.1 1.7-.3 3.4-.4 4.9-.1 1.6-.1 3.1-.2 4.4-.1 1.4-.1 2.6-.1 3.8v2.9c0 1.6-.1 2.5-.1 2.5s-.1-.9-.2-2.5c-.1-.8-.1-1.8-.2-2.9 0-.6-.1-1.2-.1-1.8v-6.5c0-1.6.1-3.3.2-5 .1-1.7.3-3.5.5-5.3.2-1.8.5-3.6.8-5.5.3-1.8.8-3.6 1.2-5.4.2-.9.5-1.8.7-2.6.3-.9.5-1.7.8-2.5.6-1.6 1.1-3.2 1.8-4.7l.9-2.1c.3-.7.7-1.3 1-1.9.6-1.2 1.3-2.3 1.9-3.3.3-.5.6-.9.9-1.3.3-.4.6-.7.8-1.1.5-.6.9-1.1 1.2-1.4.4-.1.6-.3.6-.3z"/>
    <path id="fingers_4_" d="M489.3 701.8s-14.7 13.4-14.7 22.3" class="st4"/>
    <path d="M144.9 670.5h74.6v19.2h-74.6z" class="st15"/>
    <path d="M146.1 682.7v-12.2h3.7l2.2 8.3 2.2-8.3h3.7v12.2h-2.3v-9.6l-2.4 9.6h-2.4l-2.4-9.6v9.6h-2.3zm14.2 0v-12.2h9v2.1h-6.6v2.7h6.1v2h-6.1v3.3h6.8v2.1h-9.2zm11.3 0v-12.2h2.4l5 8.1v-8.1h2.3v12.2h-2.5l-4.9-7.9v7.9h-2.3zm12.3-12.2h2.5v6.6c0 1 0 1.7.1 2 .1.5.4.9.8 1.2s.9.5 1.6.5c.7 0 1.2-.1 1.6-.4s.6-.6.6-1c.1-.4.1-1.1.1-2.1v-6.7h2.5v6.4c0 1.5-.1 2.5-.2 3.1-.1.6-.4 1.1-.7 1.5-.4.4-.8.7-1.4 1s-1.4.4-2.3.4c-1.2 0-2-.1-2.6-.4s-1.1-.6-1.4-1c-.3-.4-.6-.9-.7-1.3-.2-.7-.2-1.7-.2-3.1v-6.7z"/>
    <path id="mail" d="M373.8 660.2h42.6v32h-42.6v-32zm5 2.9c5.2 5.2 10.1 10.2 15 15.2 1 1 2 .8 3.2-.3l14.1-14.1c.2-.2.3-.4.5-.8h-32.8zm-.1 26.3h32.9c-3.9-3.7-7.6-7.1-11.3-10.5-5.2 4.2-5.2 4.2-10.3-.1-3.7 3.4-7.4 6.9-11.3 10.6zm-2-2.9c3.5-3.3 7.2-6.7 10.8-10.1-3.7-3.7-7.3-7.1-10.8-10.5v20.6zm36.8-20c-3.2 3.1-6.8 6.6-10.6 10.2 3.5 3.3 7 6.6 10.6 9.9v-20.1z" class="st16"/>
    <path d="M142.3 108.6H432v319.9H142.3z" class="st15"/>
    <path d="M149.4 120c-.6.5-1.1.8-1.7 1s-1.1.3-1.7.3c-1 0-1.8-.2-2.3-.7-.5-.5-.8-1.1-.8-1.9 0-.4.1-.9.3-1.2.2-.4.5-.7.8-.9s.7-.4 1.1-.5c.3-.1.8-.2 1.4-.2 1.2-.1 2.2-.3 2.8-.5v-.4c0-.6-.1-1.1-.4-1.3-.4-.3-1-.5-1.8-.5-.7 0-1.3.1-1.6.4s-.6.7-.8 1.3l-1.5-.2c.1-.6.4-1.2.7-1.6s.8-.7 1.4-.9c.6-.2 1.3-.3 2.1-.3s1.4.1 1.9.3c.5.2.8.4 1.1.7s.4.6.5 1c.1.3.1.7.1 1.4v2.1c0 1.4 0 2.3.1 2.7.1.4.2.7.4 1.1h-1.6c-.3-.4-.4-.8-.5-1.2zm-.1-3.5c-.6.2-1.4.4-2.5.6-.6.1-1.1.2-1.3.3s-.5.3-.6.5c-.1.2-.2.5-.2.7 0 .4.2.8.5 1 .3.3.8.4 1.4.4.6 0 1.1-.1 1.6-.4.5-.3.8-.6 1-1.1.2-.3.2-.9.2-1.5v-.5zm3.9 4.6V112h1.4v1.3c.3-.4.7-.8 1.1-1.1.5-.3 1-.4 1.6-.4.7 0 1.2.1 1.7.4.4.3.7.7.9 1.2.7-1.1 1.7-1.6 2.8-1.6.9 0 1.6.2 2.1.7.5.5.7 1.3.7 2.3v6.2H164v-5.7c0-.6 0-1.1-.1-1.3-.1-.3-.3-.5-.5-.7s-.6-.2-.9-.2c-.6 0-1.2.2-1.6.6s-.6 1.1-.6 2v5.3h-1.5v-5.9c0-.7-.1-1.2-.4-1.5-.3-.3-.7-.5-1.2-.5-.4 0-.8.1-1.2.3s-.6.6-.8 1c-.2.4-.2 1.1-.2 1.9v4.7h-1.8zm16.1 0h-1.4v-12.6h1.5v4.5c.7-.8 1.5-1.2 2.5-1.2.6 0 1.1.1 1.6.3.5.2.9.5 1.2 1 .3.4.6.9.8 1.5.2.6.3 1.2.3 1.9 0 1.6-.4 2.8-1.2 3.6-.8.9-1.7 1.3-2.8 1.3-1.1 0-1.9-.4-2.5-1.3v1zm0-4.6c0 1.1.1 1.9.4 2.4.5.8 1.1 1.2 2 1.2.7 0 1.3-.3 1.8-.9.5-.6.7-1.5.7-2.6 0-1.2-.2-2.1-.7-2.6s-1-.8-1.7-.8-1.3.3-1.8.9-.7 1.3-.7 2.4zm14.3 4.6v-1.3c-.7 1-1.7 1.5-2.9 1.5-.5 0-1-.1-1.5-.3-.5-.2-.8-.5-1-.8s-.4-.7-.5-1.1c-.1-.3-.1-.8-.1-1.4V112h1.5v5c0 .8 0 1.3.1 1.6.1.4.3.7.6 1 .3.2.7.3 1.2.3s.9-.1 1.3-.4.7-.6.9-1c.2-.4.3-1 .3-1.8V112h1.5v9.1h-1.4zm3.2-2.7l1.5-.2c.1.6.3 1.1.7 1.4.4.3.9.5 1.6.5.7 0 1.2-.1 1.6-.4.3-.3.5-.6.5-1 0-.3-.2-.6-.5-.8-.2-.1-.7-.3-1.6-.5-1.1-.3-1.9-.5-2.4-.7-.4-.2-.8-.5-1-.9-.2-.4-.3-.8-.3-1.2 0-.4.1-.8.3-1.1.2-.3.4-.6.8-.9.2-.2.6-.3 1-.4.4-.1.9-.2 1.3-.2.7 0 1.3.1 1.9.3s.9.5 1.2.8.4.8.5 1.4l-1.5.2c-.1-.5-.3-.8-.6-1.1-.3-.3-.8-.4-1.4-.4-.7 0-1.2.1-1.5.4-.3.2-.5.5-.5.8 0 .2.1.4.2.5.1.2.3.3.6.4.2.1.6.2 1.4.4 1.1.3 1.9.5 2.3.7s.8.5 1 .8.4.8.4 1.3-.2 1-.5 1.5-.7.8-1.3 1.1-1.2.4-1.9.4c-1.2 0-2.1-.2-2.7-.7-.5-.7-.9-1.4-1.1-2.4zm9.4 2.7v-12.6h1.5v4.5c.7-.8 1.6-1.3 2.7-1.3.7 0 1.3.1 1.8.4.5.3.9.6 1.1 1.1.2.5.3 1.1.3 2v5.8h-1.5v-5.8c0-.8-.2-1.3-.5-1.7-.3-.4-.8-.5-1.4-.5-.5 0-.9.1-1.3.4-.4.2-.7.6-.9 1-.2.4-.3 1-.3 1.7v5h-1.5zm10.2 0v-1.8h1.8v1.8h-1.8zm7.2 0l4.8-12.6h1.8l5.1 12.6h-1.9l-1.5-3.8h-5.3l-1.4 3.8h-1.6zm3.6-5.1h4.3l-1.3-3.5c-.4-1.1-.7-1.9-.9-2.6-.2.8-.4 1.6-.7 2.4l-1.4 3.7zm14.7 5.1h-1.4v-12.6h1.5v4.5c.7-.8 1.5-1.2 2.5-1.2.6 0 1.1.1 1.6.3.5.2.9.5 1.2 1 .3.4.6.9.8 1.5.2.6.3 1.2.3 1.9 0 1.6-.4 2.8-1.2 3.6-.8.9-1.7 1.3-2.8 1.3-1.1 0-1.9-.4-2.5-1.3v1zm-.1-4.6c0 1.1.1 1.9.4 2.4.5.8 1.1 1.2 2 1.2.7 0 1.3-.3 1.8-.9.5-.6.7-1.5.7-2.6 0-1.2-.2-2.1-.7-2.6s-1-.8-1.7-.8-1.3.3-1.8.9-.7 1.3-.7 2.4zm14.4 4.6v-1.3c-.7 1-1.7 1.5-2.9 1.5-.5 0-1-.1-1.5-.3-.5-.2-.8-.5-1-.8s-.4-.7-.5-1.1c-.1-.3-.1-.8-.1-1.4V112h1.5v5c0 .8 0 1.3.1 1.6.1.4.3.7.6 1 .3.2.7.3 1.2.3s.9-.1 1.3-.4.7-.6.9-1c.2-.4.3-1 .3-1.8V112h1.5v9.1h-1.4zm3.8 0V112h1.4v1.3c.7-1 1.6-1.5 2.9-1.5.5 0 1.1.1 1.5.3.5.2.8.5 1 .8.2.3.4.7.5 1.1.1.3.1.8.1 1.5v5.6h-1.5v-5.5c0-.6-.1-1.1-.2-1.4-.1-.3-.3-.6-.6-.7s-.7-.3-1.1-.3c-.7 0-1.2.2-1.7.6-.5.4-.7 1.2-.7 2.4v5H250zm15.7-3.3l1.5.2c-.2 1-.6 1.9-1.3 2.5-.7.6-1.5.9-2.5.9-1.2 0-2.2-.4-3-1.2-.8-.8-1.1-2-1.1-3.5 0-1 .2-1.8.5-2.6.3-.7.8-1.3 1.5-1.7.7-.4 1.4-.6 2.2-.6 1 0 1.8.2 2.4.7.6.5 1 1.2 1.2 2.1l-1.5.2c-.1-.6-.4-1.1-.8-1.4-.4-.3-.8-.5-1.3-.5-.8 0-1.4.3-1.9.8s-.7 1.4-.7 2.6c0 1.2.2 2.1.7 2.7.5.6 1.1.8 1.8.8.6 0 1.1-.2 1.5-.6.4-.1.7-.7.8-1.4zm2.8 3.3v-12.6h1.5v4.5c.7-.8 1.6-1.3 2.7-1.3.7 0 1.3.1 1.8.4.5.3.9.6 1.1 1.1.2.5.3 1.1.3 2v5.8h-1.5v-5.8c0-.8-.2-1.3-.5-1.7-.3-.4-.8-.5-1.4-.5-.5 0-.9.1-1.3.4-.4.2-.7.6-.9 1-.2.4-.3 1-.3 1.7v5h-1.5zm14.1-4.5c0-1.7.5-2.9 1.4-3.7.8-.7 1.7-1 2.9-1 1.3 0 2.3.4 3.1 1.2.8.8 1.2 2 1.2 3.4 0 1.2-.2 2.1-.5 2.8-.4.7-.9 1.2-1.5 1.6s-1.4.6-2.2.6c-1.3 0-2.3-.4-3.1-1.2-.9-1-1.3-2.2-1.3-3.7zm1.6 0c0 1.2.3 2 .8 2.6s1.1.9 1.9.9c.8 0 1.4-.3 1.9-.9s.8-1.5.8-2.7c0-1.1-.3-2-.8-2.6s-1.1-.9-1.9-.9c-.8 0-1.4.3-1.9.9s-.8 1.5-.8 2.7zm9.1 4.5v-7.9H292V112h1.4v-1c0-.6.1-1.1.2-1.4.1-.4.4-.7.8-1 .4-.2.9-.4 1.6-.4.4 0 .9.1 1.4.2l-.2 1.3c-.3-.1-.6-.1-.9-.1-.5 0-.8.1-1 .3-.2.2-.3.6-.3 1.1v.8h1.8v1.2H295v7.9h-1.7zm9.2.8l1.5.2c.1.5.2.8.5 1 .4.3.9.4 1.6.4.7 0 1.3-.1 1.7-.4.4-.3.7-.7.8-1.2.1-.3.1-1 .1-2-.7.8-1.5 1.2-2.5 1.2-1.3 0-2.2-.5-2.9-1.4s-1-2-1-3.2c0-.9.2-1.7.5-2.4s.8-1.3 1.4-1.7c.6-.4 1.3-.6 2.1-.6 1.1 0 2 .4 2.7 1.3V112h1.4v7.9c0 1.4-.1 2.4-.4 3-.3.6-.7 1.1-1.4 1.4-.6.3-1.4.5-2.3.5-1.1 0-2-.2-2.6-.7s-1.3-1.3-1.2-2.2zm1.2-5.5c0 1.2.2 2.1.7 2.6.5.5 1.1.8 1.8.8s1.3-.3 1.8-.8.7-1.4.7-2.6c0-1.1-.2-2-.7-2.5-.5-.6-1.1-.8-1.8-.8s-1.3.3-1.8.8c-.4.6-.7 1.4-.7 2.5zm14.8 4.7v-1.3c-.7 1-1.7 1.5-2.9 1.5-.5 0-1-.1-1.5-.3-.5-.2-.8-.5-1-.8s-.4-.7-.5-1.1c-.1-.3-.1-.8-.1-1.4V112h1.5v5c0 .8 0 1.3.1 1.6.1.4.3.7.6 1 .3.2.7.3 1.2.3s.9-.1 1.3-.4.7-.6.9-1c.2-.4.3-1 .3-1.8V112h1.5v9.1h-1.4zm3.7 3.5l-.2-1.4c.3.1.6.1.9.1.3 0 .6-.1.8-.2.2-.1.4-.3.5-.5.1-.2.3-.5.5-1.1 0-.1.1-.2.1-.4l-3.5-9.1h1.7l1.9 5.3c.2.7.5 1.4.7 2.1l.6-2.1 1.9-5.3h1.5l-3.5 9.3c-.4 1-.7 1.7-.9 2.1-.3.5-.6.9-.9 1.1-.4.2-.8.4-1.3.4-.1-.1-.4-.2-.8-.3zm8.3-6.2l1.5-.2c.1.6.3 1.1.7 1.4.4.3.9.5 1.6.5.7 0 1.2-.1 1.6-.4.3-.3.5-.6.5-1 0-.3-.2-.6-.5-.8-.2-.1-.7-.3-1.6-.5-1.1-.3-1.9-.5-2.4-.7-.4-.2-.8-.5-1-.9-.2-.4-.3-.8-.3-1.2 0-.4.1-.8.3-1.1.2-.3.4-.6.8-.9.2-.2.6-.3 1-.4.4-.1.9-.2 1.3-.2.7 0 1.3.1 1.9.3s.9.5 1.2.8.4.8.5 1.4l-1.5.2c-.1-.5-.3-.8-.6-1.1-.3-.3-.8-.4-1.4-.4-.7 0-1.2.1-1.5.4-.3.2-.5.5-.5.8 0 .2.1.4.2.5.1.2.3.3.6.4.2.1.6.2 1.4.4 1.1.3 1.9.5 2.3.7s.8.5 1 .8.4.8.4 1.3-.2 1-.5 1.5-.7.8-1.3 1.1-1.2.4-1.9.4c-1.2 0-2.1-.2-2.7-.7-.6-.7-1-1.4-1.1-2.4zm15.9 2.7l-2.8-9.1h1.6l1.5 5.3.5 2c0-.1.2-.7.5-1.9l1.5-5.3h1.6l1.4 5.3.5 1.7.5-1.8 1.6-5.3h1.5l-2.8 9.1h-1.6l-1.5-5.4-.4-1.6-1.8 7h-1.8zm11.1 0v-12.6h1.5v4.5c.7-.8 1.6-1.3 2.7-1.3.7 0 1.3.1 1.8.4s.9.6 1.1 1.1.3 1.1.3 2v5.8h-1.5v-5.8c0-.8-.2-1.3-.5-1.7-.3-.4-.8-.5-1.4-.5-.5 0-.9.1-1.3.4-.4.2-.7.6-.9 1-.2.4-.3 1-.3 1.7v5h-1.5zm9.2-4.5c0-1.7.5-2.9 1.4-3.7.8-.7 1.7-1 2.9-1 1.3 0 2.3.4 3.1 1.2.8.8 1.2 2 1.2 3.4 0 1.2-.2 2.1-.5 2.8-.4.7-.9 1.2-1.5 1.6-.7.4-1.4.6-2.2.6-1.3 0-2.3-.4-3.1-1.2-1-1-1.3-2.2-1.3-3.7zm1.5 0c0 1.2.3 2 .8 2.6.5.6 1.1.9 1.9.9.8 0 1.4-.3 1.9-.9.5-.6.8-1.5.8-2.7 0-1.1-.3-2-.8-2.6-.5-.6-1.1-.9-1.9-.9-.8 0-1.4.3-1.9.9-.5.6-.8 1.5-.8 2.7zm13.7 4.5v-12.6h1.5v4.5c.7-.8 1.6-1.3 2.7-1.3.7 0 1.3.1 1.8.4.5.3.9.6 1.1 1.1.2.5.3 1.1.3 2v5.8h-1.5v-5.8c0-.8-.2-1.3-.5-1.7-.3-.4-.8-.5-1.4-.5-.5 0-.9.1-1.3.4-.4.2-.7.6-.9 1-.2.4-.3 1-.3 1.7v5h-1.5zm15.7-1.1c-.6.5-1.1.8-1.7 1s-1.1.3-1.7.3c-1 0-1.8-.2-2.3-.7-.5-.5-.8-1.1-.8-1.9 0-.4.1-.9.3-1.2s.5-.7.8-.9c.3-.2.7-.4 1.1-.5.3-.1.8-.2 1.4-.2 1.2-.1 2.2-.3 2.8-.5v-.4c0-.6-.1-1.1-.4-1.3-.4-.3-1-.5-1.8-.5-.7 0-1.3.1-1.6.4s-.6.7-.8 1.3l-1.5-.2c.1-.6.4-1.2.7-1.6s.8-.7 1.4-.9c.6-.2 1.3-.3 2.1-.3s1.4.1 1.9.3c.5.2.8.4 1.1.7s.4.6.5 1c.1.3.1.7.1 1.4v2.1c0 1.4 0 2.3.1 2.7.1.4.2.7.4 1.1h-1.6c-.3-.4-.4-.8-.5-1.2zm-.1-3.5c-.6.2-1.4.4-2.5.6-.6.1-1.1.2-1.3.3-.3.1-.5.3-.6.5-.1.2-.2.5-.2.7 0 .4.2.8.5 1 .3.3.8.4 1.4.4.6 0 1.1-.1 1.6-.4.5-.3.8-.6 1-1.1.2-.3.2-.9.2-1.5v-.5zm7.3 3.2l.2 1.4c-.4.1-.8.1-1.2.1-.6 0-1-.1-1.3-.3-.3-.2-.5-.4-.7-.7-.1-.3-.2-.9-.2-1.8v-5.2h-1.1V112h1.1v-2.3l1.5-.9v3.2h1.6v1.2h-1.6v5.3c0 .4 0 .7.1.8.1.1.1.2.3.3s.3.1.5.1c.3.1.5.1.8 0zm7.8-1.5l1.6.2c-.3.9-.7 1.7-1.4 2.2-.7.5-1.6.8-2.6.8-1.3 0-2.4-.4-3.2-1.2-.8-.8-1.2-2-1.2-3.4 0-1.5.4-2.7 1.2-3.6.8-.8 1.8-1.3 3.1-1.3 1.2 0 2.2.4 3 1.2.8.8 1.2 2 1.2 3.5v.4h-6.8c.1 1 .3 1.8.8 2.3.5.5 1.1.8 1.9.8.6 0 1-.1 1.5-.4.3-.4.6-.9.9-1.5zm-5.1-2.5h5.1c-.1-.8-.3-1.3-.6-1.7-.5-.6-1.1-.9-1.9-.9-.7 0-1.3.2-1.8.7s-.8 1.1-.8 1.9zm-264 26.5v-9.1h1.4v1.3c.3-.4.7-.8 1.1-1.1.5-.3 1-.4 1.6-.4.7 0 1.2.1 1.7.4.4.3.7.7.9 1.2.7-1.1 1.7-1.6 2.8-1.6.9 0 1.6.2 2.1.7.5.5.7 1.3.7 2.3v6.2h-1.5v-5.7c0-.6 0-1.1-.1-1.3-.1-.3-.3-.5-.5-.7s-.6-.2-.9-.2c-.6 0-1.2.2-1.6.6s-.6 1.1-.6 2v5.3h-1.5v-5.9c0-.7-.1-1.2-.4-1.5-.3-.3-.7-.5-1.2-.5-.4 0-.8.1-1.2.3s-.6.6-.8 1c-.2.4-.2 1.1-.2 1.9v4.7h-1.8zm20.8-3l1.6.2c-.3.9-.7 1.7-1.4 2.2-.7.5-1.6.8-2.6.8-1.3 0-2.4-.4-3.2-1.2-.8-.8-1.2-2-1.2-3.4 0-1.5.4-2.7 1.2-3.6s1.8-1.3 3.1-1.3c1.2 0 2.2.4 3 1.2s1.2 2 1.2 3.5v.4h-6.8c.1 1 .3 1.8.9 2.3.5.5 1.1.8 1.9.8.6 0 1-.1 1.5-.4.3-.3.6-.8.8-1.5zm-5-2.5h5.1c-.1-.8-.3-1.3-.6-1.7-.5-.6-1.1-.9-1.9-.9-.7 0-1.3.2-1.8.7-.5.5-.8 1.1-.8 1.9zm9 5.5v-1.8h1.8v1.8h-1.8zm-13.4 42.1h-2.8l-1.1-2.9h-5l-1 2.9h-2.7l4.9-12.6h2.7l5 12.6zm-4.6-5l-1.7-4.7-1.7 4.7h3.4zm5.9-4.1h2.2v1.3c.3-.5.7-.8 1.2-1.1.5-.3 1-.4 1.7-.4 1.1 0 2 .4 2.7 1.2.7.8 1.1 2 1.1 3.5s-.4 2.7-1.1 3.5c-.7.8-1.6 1.3-2.7 1.3-.5 0-1-.1-1.4-.3-.4-.2-.8-.5-1.3-1v4.6h-2.4v-12.6zm2.4 4.4c0 1 .2 1.8.6 2.3s.9.7 1.5.7 1-.2 1.4-.7.6-1.2.6-2.2c0-1-.2-1.7-.6-2.1-.4-.5-.9-.7-1.4-.7-.6 0-1.1.2-1.5.7-.4.4-.6 1.1-.6 2zm10.7 4.7h-2.4v-9.1h2.2v1.3c.4-.6.7-1 1-1.2.3-.2.7-.3 1-.3.5 0 1.1.2 1.6.5l-.7 2.1c-.4-.3-.8-.4-1.1-.4-.3 0-.6.1-.9.3-.2.2-.4.5-.6 1-.1.5-.2 1.5-.2 3v2.8zm4.5-10.4v-2.2h2.4v2.2h-2.4zm0 10.4v-9.1h2.4v9.1h-2.4zm4.9 0v-12.6h2.4v12.6h-2.4zm17.4-2.3v2.2h-8.5c.1-.8.4-1.6.8-2.4.5-.8 1.4-1.8 2.7-3 1.1-1 1.8-1.7 2-2.1.3-.5.5-1 .5-1.5s-.1-.9-.4-1.2c-.3-.3-.7-.4-1.2-.4s-.9.2-1.2.5c-.3.3-.5.8-.5 1.5l-2.4-.2c.1-1.3.6-2.3 1.3-2.9.8-.6 1.7-.9 2.8-.9 1.2 0 2.2.3 2.9 1s1.1 1.5 1.1 2.5c0 .6-.1 1.1-.3 1.6s-.5 1-1 1.6c-.3.4-.8.9-1.6 1.6-.8.7-1.2 1.2-1.4 1.4s-.4.5-.5.7h4.9zm3.7-4.5c-.6-.3-1.1-.6-1.4-1.1-.3-.5-.4-1-.4-1.5 0-.9.3-1.7 1-2.3.7-.6 1.6-.9 2.8-.9 1.2 0 2.1.3 2.8.9.7.6 1 1.4 1 2.3 0 .6-.2 1.1-.5 1.6s-.7.8-1.3 1c.7.3 1.2.7 1.6 1.2.4.5.5 1.2.5 1.9 0 1.2-.4 2.1-1.1 2.8-.7.7-1.7 1.1-3 1.1-1.1 0-2.1-.3-2.9-.9-.9-.7-1.3-1.7-1.3-2.9 0-.7.2-1.3.5-1.9.5-.6 1-1 1.7-1.3zm.3 2.9c0 .7.2 1.2.5 1.6s.8.6 1.3.6.9-.2 1.2-.5c.3-.4.5-.9.5-1.5s-.2-1.1-.5-1.4c-.3-.4-.8-.5-1.3-.5-.6 0-1 .2-1.3.6-.3.2-.4.7-.4 1.1zm.2-5.3c0 .5.1.9.4 1.1.3.3.6.4 1.1.4.5 0 .8-.1 1.1-.4.3-.3.4-.6.4-1.1 0-.5-.1-.8-.4-1.1-.3-.3-.6-.4-1.1-.4-.5 0-.8.1-1.1.4-.2.3-.4.6-.4 1.1zm18.3 9.2h-2.4v-9.1c-.9.8-1.9 1.4-3.1 1.8v-2.2c.6-.2 1.3-.6 2.1-1.2.7-.6 1.2-1.2 1.5-2h2v12.7zm5.7-6.8c-.6-.3-1.1-.6-1.4-1.1-.3-.5-.4-1-.4-1.5 0-.9.3-1.7 1-2.3.7-.6 1.6-.9 2.8-.9 1.2 0 2.1.3 2.8.9.7.6 1 1.4 1 2.3 0 .6-.2 1.1-.5 1.6s-.7.8-1.3 1c.7.3 1.2.7 1.6 1.2.4.5.5 1.2.5 1.9 0 1.2-.4 2.1-1.1 2.8-.7.7-1.7 1.1-3 1.1-1.1 0-2.1-.3-2.9-.9-.9-.7-1.3-1.7-1.3-2.9 0-.7.2-1.3.5-1.9.4-.6.9-1 1.7-1.3zm.2 2.9c0 .7.2 1.2.5 1.6s.8.6 1.3.6.9-.2 1.2-.5c.3-.4.5-.9.5-1.5s-.2-1.1-.5-1.4c-.3-.4-.8-.5-1.3-.5-.6 0-1 .2-1.3.6-.2.2-.4.7-.4 1.1zm.3-5.3c0 .5.1.9.4 1.1.3.3.6.4 1.1.4.5 0 .8-.1 1.1-.4.3-.3.4-.6.4-1.1 0-.5-.1-.8-.4-1.1-.3-.3-.6-.4-1.1-.4-.5 0-.8.1-1.1.4-.3.3-.4.6-.4 1.1zm8.1 2.5v-2.4h2.4v2.4h-2.4zm0 6.7v-2.4h2.4v2.4h-2.4zm9-12.6c1.2 0 2.2.4 2.9 1.3.8 1 1.2 2.7 1.2 5.1 0 2.4-.4 4.1-1.2 5.1-.7.9-1.6 1.3-2.8 1.3-1.2 0-2.2-.5-3-1.4s-1.1-2.6-1.1-5 .4-4.1 1.2-5.1c.6-.9 1.6-1.3 2.8-1.3zm0 2c-.3 0-.6.1-.8.3-.2.2-.4.5-.5 1-.2.6-.2 1.7-.2 3.1 0 1.5.1 2.5.2 3 .1.6.3.9.6 1.1.2.2.5.3.8.3s.6-.1.8-.3c.2-.2.4-.5.5-1 .2-.6.2-1.7.2-3.1 0-1.5-.1-2.5-.2-3-.1-.6-.3-.9-.6-1.1s-.5-.3-.8-.3zm9.8-2c1.2 0 2.2.4 2.9 1.3.8 1 1.2 2.7 1.2 5.1 0 2.4-.4 4.1-1.2 5.1-.7.9-1.6 1.3-2.8 1.3-1.2 0-2.2-.5-3-1.4s-1.1-2.6-1.1-5 .4-4.1 1.2-5.1c.6-.9 1.5-1.3 2.8-1.3zm0 2c-.3 0-.6.1-.8.3-.2.2-.4.5-.5 1-.2.6-.2 1.7-.2 3.1 0 1.5.1 2.5.2 3 .1.6.3.9.6 1.1.2.2.5.3.8.3s.6-.1.8-.3c.2-.2.4-.5.5-1 .2-.6.2-1.7.2-3.1 0-1.5-.1-2.5-.2-3-.1-.6-.3-.9-.6-1.1s-.5-.3-.8-.3zm11.1 14.1v-16.1h4.3v1.9h-2v12.3h2v1.9h-4.3zm5.3-8.2c0-.8.2-1.6.6-2.3.4-.7 1-1.3 1.7-1.7.7-.4 1.5-.6 2.4-.6 1.4 0 2.5.4 3.4 1.3.9.9 1.3 2 1.3 3.4s-.4 2.5-1.3 3.4c-.9.9-2 1.4-3.4 1.4-.8 0-1.6-.2-2.4-.6-.8-.4-1.3-.9-1.7-1.7-.4-.7-.6-1.6-.6-2.6zm2.4.1c0 .9.2 1.6.6 2.1.4.5 1 .7 1.6.7s1.2-.2 1.6-.7.6-1.2.6-2.1c0-.9-.2-1.6-.6-2.1-.4-.5-1-.7-1.6-.7s-1.2.2-1.6.7c-.4.5-.6 1.2-.6 2.1zm17.1 4.6h-2.4v-4.6c0-1-.1-1.6-.2-1.9-.1-.3-.3-.5-.5-.7-.2-.2-.5-.2-.8-.2-.4 0-.8.1-1.1.3-.3.2-.6.5-.7.9-.1.4-.2 1.1-.2 2.1v4.1h-2.4v-9.1h2.2v1.3c.8-1 1.8-1.5 3-1.5.5 0 1 .1 1.5.3s.8.4 1 .7c.2.3.4.6.5 1 .1.4.1.9.1 1.6v5.7zm11.5-9.1v1.9h-1.6v5c0 .1.1.2.2.3.1.1.2.1.4.1s.5-.1 1-.2l.2 1.9c-.6.2-1.2.4-1.9.4-.4 0-.8-.1-1.2-.2-.3-.1-.6-.3-.8-.6s-.3-.5-.3-.9c-.1-.3-.1-.8-.1-1.7v-4h-1v-1.9h1.1v-1.8l2.4-1.4v3.2h1.6zm4.1-3.5v4.6c.8-.9 1.7-1.4 2.8-1.4.6 0 1.1.1 1.5.3s.8.5 1 .8.4.7.5 1.1c.1.4.1 1 .1 1.8v5.3h-2.4v-4.8c0-1 0-1.6-.1-1.8-.1-.3-.3-.5-.5-.6-.2-.2-.5-.2-.9-.2s-.8.1-1.1.3c-.3.2-.5.5-.7.9-.1.4-.2 1-.2 1.7v4.6h-2.4v-12.6h2.4zm13.6 9.7l2.4.4c-.3.9-.8 1.5-1.5 2s-1.5.7-2.5.7c-1.6 0-2.8-.5-3.5-1.6-.6-.8-.9-1.9-.9-3.1 0-1.5.4-2.7 1.2-3.5s1.8-1.3 3-1.3c1.4 0 2.4.4 3.2 1.3.8.9 1.2 2.3 1.1 4.1h-6c0 .7.2 1.3.6 1.7.4.4.8.6 1.4.6.4 0 .7-.1 1-.3s.4-.6.5-1zm.2-2.5c0-.7-.2-1.2-.5-1.6s-.8-.5-1.3-.5-1 .2-1.3.6c-.3.4-.5.9-.5 1.6h3.6zm10.9 5.4l-2.9-9.1h2.3l1.7 6 1.6-6h2.3l1.5 6 1.7-6h2.4l-2.9 9.1h-2.3l-1.6-5.9-1.5 5.9h-2.3zm13.8-6.4l-2.2-.4c.2-.9.7-1.5 1.3-2 .6-.4 1.5-.6 2.7-.6 1.1 0 1.9.1 2.4.4.5.3.9.6 1.1 1 .2.4.3 1.1.3 2.2v2.8c0 .8 0 1.4.1 1.8.1.4.2.8.4 1.2h-2.4c-.1-.2-.1-.4-.2-.7 0-.1-.1-.2-.1-.3-.4.4-.9.7-1.3.9-.5.2-1 .3-1.5.3-.9 0-1.7-.3-2.2-.8s-.8-1.2-.8-1.9c0-.5.1-1 .4-1.4.2-.4.6-.7 1-.9.4-.2 1.1-.4 1.9-.6 1.1-.2 1.9-.4 2.3-.6v-.2c0-.5-.1-.8-.3-1-.2-.2-.7-.3-1.3-.3-.4 0-.8.1-1 .3-.3.1-.5.4-.6.8zm3.2 2c-.3.1-.8.2-1.5.4-.7.1-1.1.3-1.3.4-.3.2-.5.5-.5.8 0 .3.1.6.4.9.3.2.6.4 1 .4s.8-.1 1.2-.4c.3-.2.5-.5.6-.8.1-.2.1-.6.1-1.2v-.5zm3.6-4.7h2.6l2.2 6.5 2.1-6.5h2.5l-3.2 8.8-.6 1.6c-.2.5-.4.9-.6 1.2-.2.3-.4.5-.7.7-.2.2-.6.3-.9.4-.4.1-.8.1-1.2.1-.5 0-.9 0-1.4-.1l-.2-1.9c.4.1.7.1 1 .1.6 0 1-.2 1.2-.5.3-.3.5-.7.6-1.3l-3.4-9.1zm18.2-3.5v4.6c.8-.9 1.7-1.4 2.8-1.4.6 0 1.1.1 1.5.3.4.2.8.5 1 .8.2.3.4.7.5 1.1.1.4.1 1 .1 1.8v5.3h-2.4v-4.8c0-1 0-1.6-.1-1.8s-.3-.5-.5-.6-.5-.2-.9-.2-.8.1-1.1.3c-.3.2-.5.5-.7.9-.1.4-.2 1-.2 1.7v4.6h-2.4v-12.6h2.4zm7.8 7.9c0-.8.2-1.6.6-2.3.4-.7 1-1.3 1.7-1.7s1.5-.6 2.4-.6c1.4 0 2.5.4 3.4 1.3.9.9 1.3 2 1.3 3.4s-.4 2.5-1.3 3.4c-.9.9-2 1.4-3.4 1.4-.8 0-1.6-.2-2.4-.6-.8-.4-1.3-.9-1.7-1.7-.4-.7-.6-1.6-.6-2.6zm2.5.1c0 .9.2 1.6.6 2.1.4.5 1 .7 1.6.7.6 0 1.2-.2 1.6-.7s.6-1.2.6-2.1c0-.9-.2-1.6-.6-2.1-.4-.5-1-.7-1.6-.7-.6 0-1.2.2-1.6.7-.4.5-.6 1.2-.6 2.1zm8.6-4.5h2.2v1.2c.8-1 1.7-1.4 2.8-1.4.6 0 1.1.1 1.5.4s.8.6 1.1 1.1c.4-.5.8-.8 1.3-1.1s1-.4 1.5-.4c.7 0 1.2.1 1.7.4.5.3.8.7 1 1.2.2.4.2 1 .2 1.9v5.8h-2.4v-5.2c0-.9-.1-1.5-.2-1.7-.2-.3-.6-.5-1-.5-.3 0-.7.1-1 .3-.3.2-.5.5-.6.9-.1.4-.2 1-.2 1.9v4.4h-2.4v-5c0-.9 0-1.5-.1-1.7-.1-.3-.2-.4-.4-.6-.2-.1-.4-.2-.7-.2-.4 0-.7.1-1 .3-.3.2-.5.5-.6.9-.1.4-.2 1-.2 1.9v4.4h-2.4v-9.2zm21.1 6.2l2.4.4c-.3.9-.8 1.5-1.5 2s-1.5.7-2.5.7c-1.6 0-2.8-.5-3.5-1.6-.6-.8-.9-1.9-.9-3.1 0-1.5.4-2.7 1.2-3.5.8-.9 1.8-1.3 3-1.3 1.4 0 2.4.4 3.2 1.3.8.9 1.2 2.3 1.1 4.1h-6c0 .7.2 1.3.6 1.7s.8.6 1.4.6c.4 0 .7-.1 1-.3s.4-.6.5-1zm.1-2.5c0-.7-.2-1.2-.5-1.6-.3-.4-.8-.5-1.3-.5s-1 .2-1.3.6c-.3.4-.5.9-.5 1.6h3.6zm7.7-7.2v16.1h-4.3v-1.9h2v-12.3h-2v-1.9h4.3zm-270.6 33.6v-12.6h1.7v12.6h-1.7zm12.7-1.4l.2 1.4c-.4.1-.8.1-1.2.1-.6 0-1-.1-1.3-.3-.3-.2-.5-.4-.7-.7-.1-.3-.2-.9-.2-1.8v-5.2h-1.1v-1.2h1.1V194l1.5-.9v3.2h1.6v1.2h-1.6v5.3c0 .4 0 .7.1.8.1.1.1.2.3.3s.3.1.5.1c.3 0 .5 0 .8-.1zm1.5 1.4v-12.6h1.5v4.5c.7-.8 1.6-1.3 2.7-1.3.7 0 1.3.1 1.8.4.5.3.9.6 1.1 1.1.2.5.3 1.1.3 2v5.8H164v-5.8c0-.8-.2-1.3-.5-1.7-.3-.4-.8-.5-1.4-.5-.5 0-.9.1-1.3.4-.4.2-.7.6-.9 1-.2.4-.3 1-.3 1.7v5h-1.5zm9.8-10.8v-1.8h1.5v1.8h-1.5zm0 10.8v-9.1h1.5v9.1h-1.5zm3.9 0v-9.1h1.4v1.3c.7-1 1.6-1.5 2.9-1.5.5 0 1.1.1 1.5.3.5.2.8.5 1 .8.2.3.4.7.5 1.1.1.3.1.8.1 1.5v5.6h-1.5v-5.5c0-.6-.1-1.1-.2-1.4-.1-.3-.3-.6-.6-.7s-.7-.3-1.1-.3c-.7 0-1.2.2-1.7.6-.5.4-.7 1.2-.7 2.4v5h-1.6zm9.8 0v-12.6h1.5v7.2l3.7-3.7h2l-3.5 3.4 3.8 5.7h-1.9l-3-4.7-1.1 1v3.6h-1.5zm13-2.7l1.5-.2c.1.6.3 1.1.7 1.4.4.3.9.5 1.6.5.7 0 1.2-.1 1.6-.4.3-.3.5-.6.5-1 0-.3-.2-.6-.5-.8-.2-.1-.7-.3-1.6-.5-1.1-.3-1.9-.5-2.4-.7-.4-.2-.8-.5-1-.9-.2-.4-.3-.8-.3-1.2 0-.4.1-.8.3-1.1.2-.3.4-.6.8-.9.2-.2.6-.3 1-.4.4-.1.9-.2 1.3-.2.7 0 1.3.1 1.9.3s.9.5 1.2.8.4.8.5 1.4l-1.5.2c-.1-.5-.3-.8-.6-1.1-.3-.3-.8-.4-1.4-.4-.7 0-1.2.1-1.5.4-.3.2-.5.5-.5.8 0 .2.1.4.2.5.1.2.3.3.6.4.2.1.6.2 1.4.4 1.1.3 1.9.5 2.3.7s.8.5 1 .8.4.8.4 1.3-.2 1-.5 1.5-.7.8-1.3 1.1-1.2.4-1.9.4c-1.2 0-2.1-.2-2.7-.7-.5-.7-.9-1.4-1.1-2.4zm8.9-1.8c0-1.7.5-2.9 1.4-3.7.8-.7 1.7-1 2.9-1 1.3 0 2.3.4 3.1 1.2.8.8 1.2 2 1.2 3.4 0 1.2-.2 2.1-.5 2.8-.4.7-.9 1.2-1.5 1.6s-1.4.6-2.2.6c-1.3 0-2.3-.4-3.1-1.2-1-1-1.3-2.2-1.3-3.7zm1.5 0c0 1.2.3 2 .8 2.6s1.1.9 1.9.9c.8 0 1.4-.3 1.9-.9s.8-1.5.8-2.7c0-1.1-.3-2-.8-2.6s-1.1-.9-1.9-.9c-.8 0-1.4.3-1.9.9s-.8 1.5-.8 2.7zm8.8 4.5v-9.1h1.4v1.3c.3-.4.7-.8 1.1-1.1.5-.3 1-.4 1.6-.4.7 0 1.2.1 1.7.4.4.3.7.7.9 1.2.7-1.1 1.7-1.6 2.8-1.6.9 0 1.6.2 2.1.7.5.5.7 1.3.7 2.3v6.2h-1.5v-5.7c0-.6 0-1.1-.1-1.3-.1-.3-.3-.5-.5-.7s-.6-.2-.9-.2c-.6 0-1.2.2-1.6.6s-.6 1.1-.6 2v5.3h-1.5v-5.9c0-.7-.1-1.2-.4-1.5-.3-.3-.7-.5-1.2-.5-.4 0-.8.1-1.2.3s-.6.6-.8 1c-.2.4-.2 1.1-.2 1.9v4.7h-1.8zm20.9-2.9l1.6.2c-.3.9-.7 1.7-1.4 2.2-.7.5-1.6.8-2.6.8-1.3 0-2.4-.4-3.2-1.2-.8-.8-1.2-2-1.2-3.4 0-1.5.4-2.7 1.2-3.6s1.8-1.3 3.1-1.3c1.2 0 2.2.4 3 1.2s1.2 2 1.2 3.5v.4h-6.8c.1 1 .3 1.8.9 2.3.5.5 1.1.8 1.9.8.6 0 1-.1 1.5-.4.2-.4.6-.9.8-1.5zm-5.1-2.5h5.1c-.1-.8-.3-1.3-.6-1.7-.5-.6-1.1-.9-1.9-.9-.7 0-1.3.2-1.8.7-.5.5-.7 1.1-.8 1.9zm8 .9c0-1.7.5-2.9 1.4-3.7.8-.7 1.7-1 2.9-1 1.3 0 2.3.4 3.1 1.2.8.8 1.2 2 1.2 3.4 0 1.2-.2 2.1-.5 2.8-.4.7-.9 1.2-1.5 1.6s-1.4.6-2.2.6c-1.3 0-2.3-.4-3.1-1.2-.9-1-1.3-2.2-1.3-3.7zm1.6 0c0 1.2.3 2 .8 2.6s1.1.9 1.9.9c.8 0 1.4-.3 1.9-.9s.8-1.5.8-2.7c0-1.1-.3-2-.8-2.6s-1.1-.9-1.9-.9c-.8 0-1.4.3-1.9.9s-.8 1.5-.8 2.7zm8.8 4.5v-9.1h1.4v1.3c.7-1 1.6-1.5 2.9-1.5.5 0 1.1.1 1.5.3.5.2.8.5 1 .8.2.3.4.7.5 1.1.1.3.1.8.1 1.5v5.6h-1.5v-5.5c0-.6-.1-1.1-.2-1.4-.1-.3-.3-.6-.6-.7s-.7-.3-1.1-.3c-.7 0-1.2.2-1.7.6-.5.4-.7 1.2-.7 2.4v5H248zm16-2.9l1.6.2c-.3.9-.7 1.7-1.4 2.2-.7.5-1.6.8-2.6.8-1.3 0-2.4-.4-3.2-1.2-.8-.8-1.2-2-1.2-3.4 0-1.5.4-2.7 1.2-3.6s1.8-1.3 3.1-1.3c1.2 0 2.2.4 3 1.2s1.2 2 1.2 3.5v.4h-6.8c.1 1 .3 1.8.9 2.3.5.5 1.1.8 1.9.8.6 0 1-.1 1.5-.4.3-.4.6-.9.8-1.5zm-5.1-2.5h5.1c-.1-.8-.3-1.3-.6-1.7-.5-.6-1.1-.9-1.9-.9-.7 0-1.3.2-1.8.7-.4.5-.7 1.1-.8 1.9zm13.5-5.4v-1.8h1.5v1.8h-1.5zm0 10.8v-9.1h1.5v9.1h-1.5zm3.3-2.7l1.5-.2c.1.6.3 1.1.7 1.4.4.3.9.5 1.6.5.7 0 1.2-.1 1.6-.4.3-.3.5-.6.5-1 0-.3-.2-.6-.5-.8-.2-.1-.7-.3-1.6-.5-1.1-.3-1.9-.5-2.4-.7-.4-.2-.8-.5-1-.9-.2-.4-.3-.8-.3-1.2 0-.4.1-.8.3-1.1.2-.3.4-.6.8-.9.2-.2.6-.3 1-.4.4-.1.9-.2 1.3-.2.7 0 1.3.1 1.9.3s.9.5 1.2.8.4.8.5 1.4l-1.5.2c-.1-.5-.3-.8-.6-1.1-.3-.3-.8-.4-1.4-.4-.7 0-1.2.1-1.5.4-.3.2-.5.5-.5.8 0 .2.1.4.2.5.1.2.3.3.6.4.2.1.6.2 1.4.4 1.1.3 1.9.5 2.3.7s.8.5 1 .8.4.8.4 1.3-.2 1-.5 1.5-.7.8-1.3 1.1-1.2.4-1.9.4c-1.2 0-2.1-.2-2.7-.7-.5-.7-.9-1.4-1.1-2.4zm14.7 2.7v-7.9H289v-1.2h1.4v-1c0-.6.1-1.1.2-1.4.1-.4.4-.7.8-1 .4-.2.9-.4 1.6-.4.4 0 .9.1 1.4.2l-.2 1.3c-.3-.1-.6-.1-.9-.1-.5 0-.8.1-1 .3-.2.2-.3.6-.3 1.1v.8h1.8v1.2H292v7.9h-1.6zm3.9-4.5c0-1.7.5-2.9 1.4-3.7.8-.7 1.7-1 2.9-1 1.3 0 2.3.4 3.1 1.2.8.8 1.2 2 1.2 3.4 0 1.2-.2 2.1-.5 2.8-.4.7-.9 1.2-1.5 1.6s-1.4.6-2.2.6c-1.3 0-2.3-.4-3.1-1.2-.9-1-1.3-2.2-1.3-3.7zm1.6 0c0 1.2.3 2 .8 2.6s1.1.9 1.9.9c.8 0 1.4-.3 1.9-.9s.8-1.5.8-2.7c0-1.1-.3-2-.8-2.6s-1.1-.9-1.9-.9c-.8 0-1.4.3-1.9.9s-.8 1.5-.8 2.7zm8.7 4.5v-12.6h1.5v12.6h-1.5zm3.9 0v-12.6h1.5v12.6h-1.5zm3.4-4.5c0-1.7.5-2.9 1.4-3.7.8-.7 1.7-1 2.9-1 1.3 0 2.3.4 3.1 1.2.8.8 1.2 2 1.2 3.4 0 1.2-.2 2.1-.5 2.8-.4.7-.9 1.2-1.5 1.6s-1.4.6-2.2.6c-1.3 0-2.3-.4-3.1-1.2-.9-1-1.3-2.2-1.3-3.7zm1.6 0c0 1.2.3 2 .8 2.6s1.1.9 1.9.9c.8 0 1.4-.3 1.9-.9s.8-1.5.8-2.7c0-1.1-.3-2-.8-2.6s-1.1-.9-1.9-.9c-.8 0-1.4.3-1.9.9s-.8 1.5-.8 2.7zm10.4 4.5l-2.8-9.1h1.6l1.5 5.3.5 2c0-.1.2-.7.5-1.9l1.5-5.3h1.6l1.4 5.3.5 1.7.5-1.8 1.6-5.3h1.5l-2.8 9.1h-1.6l-1.5-5.4-.4-1.6-1.8 7h-1.8zm11.1-10.8v-1.8h1.5v1.8H335zm0 10.8v-9.1h1.5v9.1H335zm3.9 0v-9.1h1.4v1.3c.7-1 1.6-1.5 2.9-1.5.5 0 1.1.1 1.5.3.5.2.8.5 1 .8.2.3.4.7.5 1.1.1.3.1.8.1 1.5v5.6h-1.5v-5.5c0-.6-.1-1.1-.2-1.4-.1-.3-.3-.6-.6-.7s-.7-.3-1.1-.3c-.7 0-1.2.2-1.7.6-.5.4-.7 1.2-.7 2.4v5h-1.6zm9.4.8l1.5.2c.1.5.2.8.5 1 .4.3.9.4 1.6.4.7 0 1.3-.1 1.7-.4.4-.3.7-.7.8-1.2.1-.3.1-1 .1-2-.7.8-1.5 1.2-2.5 1.2-1.3 0-2.2-.5-2.9-1.4s-1-2-1-3.2c0-.9.2-1.7.5-2.4s.8-1.3 1.4-1.7c.6-.4 1.3-.6 2.1-.6 1.1 0 2 .4 2.7 1.3v-1.1h1.4v7.9c0 1.4-.1 2.4-.4 3-.3.6-.7 1.1-1.4 1.4-.6.3-1.4.5-2.3.5-1.1 0-2-.2-2.6-.7s-1.2-1.2-1.2-2.2zm1.3-5.5c0 1.2.2 2.1.7 2.6.5.5 1.1.8 1.8.8s1.3-.3 1.8-.8.7-1.4.7-2.6c0-1.1-.2-2-.7-2.5-.5-.6-1.1-.8-1.8-.8s-1.3.3-1.8.8c-.4.6-.7 1.4-.7 2.5zm13.7 4.7v-9.1h1.4v1.3c.3-.4.7-.8 1.1-1.1.5-.3 1-.4 1.6-.4.7 0 1.2.1 1.7.4.4.3.7.7.9 1.2.7-1.1 1.7-1.6 2.8-1.6.9 0 1.6.2 2.1.7.5.5.7 1.3.7 2.3v6.2h-1.5v-5.7c0-.6-.1-1.1-.2-1.3-.1-.3-.3-.5-.5-.7-.3-.2-.6-.2-.9-.2-.6 0-1.2.2-1.6.6s-.6 1.1-.6 2v5.3h-1.5v-5.9c0-.7-.1-1.2-.4-1.5-.3-.3-.7-.5-1.2-.5-.4 0-.8.1-1.2.3s-.6.6-.8 1c-.2.4-.2 1.1-.2 1.9v4.7h-1.7zm20.9-2.9l1.6.2c-.3.9-.7 1.7-1.4 2.2-.7.5-1.6.8-2.6.8-1.3 0-2.4-.4-3.2-1.2-.8-.8-1.2-2-1.2-3.4 0-1.5.4-2.7 1.2-3.6.8-.8 1.8-1.3 3.1-1.3 1.2 0 2.2.4 3 1.2.8.8 1.2 2 1.2 3.5v.4H379c.1 1 .3 1.8.8 2.3.5.5 1.1.8 1.9.8.6 0 1-.1 1.5-.4.4-.4.7-.9 1-1.5zm-5.1-2.5h5.1c-.1-.8-.3-1.3-.6-1.7-.5-.6-1.1-.9-1.9-.9-.7 0-1.3.2-1.8.7s-.8 1.1-.8 1.9zm9 5.4v-1.8h1.8v1.8h-1.8zm-233.2 42.1h-2.8l-1.1-2.9h-5l-1 2.9h-2.7l4.9-12.6h2.7l5 12.6zm-4.6-4.9l-1.7-4.7-1.7 4.7h3.4zm5.9-4.2h2.2v1.3c.3-.5.7-.8 1.2-1.1.5-.3 1-.4 1.7-.4 1.1 0 2 .4 2.7 1.2.7.8 1.1 2 1.1 3.5s-.4 2.7-1.1 3.5c-.7.8-1.6 1.3-2.7 1.3-.5 0-1-.1-1.4-.3-.4-.2-.8-.5-1.3-1v4.6h-2.4v-12.6zm2.4 4.4c0 1 .2 1.8.6 2.3s.9.7 1.5.7 1-.2 1.4-.7.6-1.2.6-2.2c0-1-.2-1.7-.6-2.1-.4-.5-.9-.7-1.4-.7-.6 0-1.1.2-1.5.7-.4.5-.6 1.1-.6 2zm10.7 4.7h-2.4v-9.1h2.2v1.3c.4-.6.7-1 1-1.2.3-.2.7-.3 1-.3.5 0 1.1.2 1.6.5l-.7 2.1c-.4-.3-.8-.4-1.1-.4-.3 0-.6.1-.9.3-.2.2-.4.5-.6 1-.1.5-.2 1.5-.2 3v2.8zm4.5-10.3v-2.2h2.4v2.2h-2.4zm0 10.3v-9.1h2.4v9.1h-2.4zm4.9 0v-12.6h2.4v12.6h-2.4zm17.4-2.2v2.2h-8.5c.1-.8.4-1.6.8-2.4.5-.8 1.4-1.8 2.7-3 1.1-1 1.8-1.7 2-2.1.3-.5.5-1 .5-1.5s-.1-.9-.4-1.2c-.3-.3-.7-.4-1.2-.4s-.9.2-1.2.5c-.3.3-.5.8-.5 1.5l-2.4-.2c.1-1.3.6-2.3 1.3-2.9.8-.6 1.7-.9 2.8-.9 1.2 0 2.2.3 2.9 1s1.1 1.5 1.1 2.5c0 .6-.1 1.1-.3 1.6s-.5 1-1 1.6c-.3.4-.8.9-1.6 1.6-.8.7-1.2 1.2-1.4 1.4s-.4.5-.5.7h4.9zm3.7-4.6c-.6-.3-1.1-.6-1.4-1.1-.3-.5-.4-1-.4-1.5 0-.9.3-1.7 1-2.3.7-.6 1.6-.9 2.8-.9 1.2 0 2.1.3 2.8.9.7.6 1 1.4 1 2.3 0 .6-.2 1.1-.5 1.6s-.7.8-1.3 1c.7.3 1.2.7 1.6 1.2.4.5.5 1.2.5 1.9 0 1.2-.4 2.1-1.1 2.8-.7.7-1.7 1.1-3 1.1-1.1 0-2.1-.3-2.9-.9-.9-.7-1.3-1.7-1.3-2.9 0-.7.2-1.3.5-1.9.5-.5 1-.9 1.7-1.3zm.3 3c0 .7.2 1.2.5 1.6s.8.6 1.3.6.9-.2 1.2-.5c.3-.4.5-.9.5-1.5s-.2-1.1-.5-1.4c-.3-.4-.8-.5-1.3-.5-.6 0-1 .2-1.3.6-.3.2-.4.6-.4 1.1zm.2-5.4c0 .5.1.9.4 1.1.3.3.6.4 1.1.4.5 0 .8-.1 1.1-.4.3-.3.4-.6.4-1.1 0-.5-.1-.8-.4-1.1-.3-.3-.6-.4-1.1-.4-.5 0-.8.1-1.1.4-.2.3-.4.7-.4 1.1zm18.3 9.2h-2.4v-9.1c-.9.8-1.9 1.4-3.1 1.8V238c.6-.2 1.3-.6 2.1-1.2.7-.6 1.2-1.2 1.5-2h2v12.6zm5.7-6.8c-.6-.3-1.1-.6-1.4-1.1-.3-.5-.4-1-.4-1.5 0-.9.3-1.7 1-2.3.7-.6 1.6-.9 2.8-.9 1.2 0 2.1.3 2.8.9.7.6 1 1.4 1 2.3 0 .6-.2 1.1-.5 1.6s-.7.8-1.3 1c.7.3 1.2.7 1.6 1.2.4.5.5 1.2.5 1.9 0 1.2-.4 2.1-1.1 2.8-.7.7-1.7 1.1-3 1.1-1.1 0-2.1-.3-2.9-.9-.9-.7-1.3-1.7-1.3-2.9 0-.7.2-1.3.5-1.9.4-.5.9-.9 1.7-1.3zm.2 3c0 .7.2 1.2.5 1.6s.8.6 1.3.6.9-.2 1.2-.5c.3-.4.5-.9.5-1.5s-.2-1.1-.5-1.4c-.3-.4-.8-.5-1.3-.5-.6 0-1 .2-1.3.6-.2.2-.4.6-.4 1.1zm.3-5.4c0 .5.1.9.4 1.1.3.3.6.4 1.1.4.5 0 .8-.1 1.1-.4.3-.3.4-.6.4-1.1 0-.5-.1-.8-.4-1.1-.3-.3-.6-.4-1.1-.4-.5 0-.8.1-1.1.4-.3.3-.4.7-.4 1.1zm8.1 2.5v-2.4h2.4v2.4h-2.4zm0 6.7V245h2.4v2.4h-2.4zm13.1-2.2v2.2h-8.5c.1-.8.4-1.6.8-2.4.5-.8 1.4-1.8 2.7-3 1.1-1 1.8-1.7 2-2.1.3-.5.5-1 .5-1.5s-.1-.9-.4-1.2c-.3-.3-.7-.4-1.2-.4s-.9.2-1.2.5c-.3.3-.5.8-.5 1.5l-2.4-.2c.1-1.3.6-2.3 1.3-2.9.8-.6 1.7-.9 2.8-.9 1.2 0 2.2.3 2.9 1s1.1 1.5 1.1 2.5c0 .6-.1 1.1-.3 1.6s-.5 1-1 1.6c-.3.4-.8.9-1.6 1.6-.8.7-1.2 1.2-1.4 1.4s-.4.5-.5.7h4.9zm7.8 2.2h-2.4v-9.1c-.9.8-1.9 1.4-3.1 1.8V238c.6-.2 1.3-.6 2.1-1.2.7-.6 1.2-1.2 1.5-2h2v12.6zm9 3.6v-16.1h4.3v1.9h-2v12.3h2v1.9h-4.3zm5.8-13.9v-2.2h2.4v2.2h-2.4zm0 10.3v-9.1h2.4v9.1h-2.4zm13.2 0h-2.4v-4.6c0-1-.1-1.6-.2-1.9-.1-.3-.3-.5-.5-.7-.2-.2-.5-.2-.8-.2-.4 0-.8.1-1.1.3-.3.2-.6.5-.7.9-.1.4-.2 1.1-.2 2.1v4.1h-2.4v-9.1h2.2v1.3c.8-1 1.8-1.5 3-1.5.5 0 1 .1 1.5.3s.8.4 1 .7c.2.3.4.6.5 1 .1.4.1.9.1 1.6v5.7zm1.6-2.6l2.4-.4c.1.5.3.8.6 1.1.3.2.8.4 1.3.4.6 0 1.1-.1 1.4-.3.2-.2.3-.4.3-.6 0-.2-.1-.3-.2-.5-.1-.1-.4-.2-.8-.3-1.9-.4-3.2-.8-3.7-1.2-.7-.5-1.1-1.2-1.1-2s.3-1.5.9-2c.6-.5 1.6-.8 2.9-.8 1.2 0 2.2.2 2.8.6.6.4 1 1 1.3 1.8l-2.3.4c-.1-.4-.3-.6-.6-.8-.3-.2-.7-.3-1.2-.3-.6 0-1.1.1-1.4.3-.2.1-.3.3-.3.5s.1.3.2.4c.2.2 1 .4 2.3.7 1.3.3 2.2.6 2.7 1.1.5.4.8 1 .8 1.8s-.3 1.6-1 2.1c-.7.6-1.7.9-3.1.9-1.2 0-2.2-.3-2.9-.8-.6-.5-1.1-1.2-1.3-2.1zm10.6-7.7v-2.2h2.4v2.2H294zm0 10.3v-9.1h2.4v9.1H294zm13.3 0H305v-1.3c-.4.5-.8.9-1.3 1.2-.5.3-1 .4-1.5.4-1 0-1.9-.4-2.7-1.3-.7-.8-1.1-2-1.1-3.5s.4-2.7 1.1-3.5c.7-.8 1.6-1.2 2.8-1.2 1 0 1.9.4 2.6 1.3V235h2.4v12.4zm-6.5-4.7c0 1 .1 1.7.4 2.1.4.6.9.9 1.6.9.6 0 1-.2 1.4-.7.4-.5.6-1.2.6-2.1 0-1-.2-1.8-.6-2.3-.4-.5-.9-.7-1.5-.7s-1.1.2-1.4.7c-.3.5-.5 1.2-.5 2.1zm14.1 1.8l2.4.4c-.3.9-.8 1.5-1.5 2s-1.5.7-2.5.7c-1.6 0-2.8-.5-3.5-1.6-.6-.8-.9-1.9-.9-3.1 0-1.5.4-2.7 1.2-3.5s1.8-1.3 3-1.3c1.4 0 2.4.4 3.2 1.3.8.9 1.2 2.3 1.1 4.1h-6c0 .7.2 1.3.6 1.7.4.4.8.6 1.4.6.4 0 .7-.1 1-.3s.4-.5.5-1zm.1-2.4c0-.7-.2-1.2-.5-1.6s-.8-.5-1.3-.5-1 .2-1.3.6c-.3.4-.5.9-.5 1.6h3.6zm11.1-1l-2.2-.4c.2-.9.7-1.5 1.3-2 .6-.4 1.5-.6 2.7-.6 1.1 0 1.9.1 2.4.4.5.3.9.6 1.1 1 .2.4.3 1.1.3 2.2v2.8c0 .8 0 1.4.1 1.8.1.4.2.8.4 1.2h-2.4c-.1-.2-.1-.4-.2-.7 0-.1-.1-.2-.1-.3-.4.4-.9.7-1.3.9-.5.2-1 .3-1.5.3-.9 0-1.7-.3-2.2-.8s-.8-1.2-.8-1.9c0-.5.1-1 .4-1.4.2-.4.6-.7 1-.9.4-.2 1.1-.4 1.9-.6 1.1-.2 1.9-.4 2.3-.6v-.2c0-.5-.1-.8-.3-1-.2-.2-.7-.3-1.3-.3-.4 0-.8.1-1 .3-.3.1-.5.4-.6.8zm3.2 2c-.3.1-.8.2-1.5.4-.7.1-1.1.3-1.3.4-.3.2-.5.5-.5.8 0 .3.1.6.4.9.3.2.6.4 1 .4s.8-.1 1.2-.4c.3-.2.5-.5.6-.8.1-.2.1-.6.1-1.2v-.5zm9.5 4.3v-12.6h2.4v4.5c.7-.8 1.6-1.3 2.6-1.3 1.1 0 2 .4 2.8 1.2.7.8 1.1 2 1.1 3.5 0 1.6-.4 2.7-1.1 3.6-.7.8-1.6 1.3-2.7 1.3-.5 0-1-.1-1.5-.4s-.9-.6-1.3-1.2v1.3h-2.3zm2.4-4.7c0 .9.1 1.6.4 2.1.4.6 1 1 1.7 1 .5 0 1-.2 1.4-.7.4-.5.6-1.2.6-2.1 0-1-.2-1.8-.6-2.2-.4-.5-.9-.7-1.5-.7s-1.1.2-1.4.7-.6 1-.6 1.9zm14.5 4.7V246c-.3.5-.8.9-1.3 1.1-.5.3-1.1.4-1.7.4-.6 0-1.2-.1-1.6-.4-.5-.3-.8-.6-1.1-1.1s-.3-1.2-.3-2v-5.8h2.4v4.2c0 1.3 0 2.1.1 2.4.1.3.2.5.5.7.2.2.5.3.9.3s.8-.1 1.1-.3.5-.5.7-.8c.1-.3.2-1.2.2-2.5v-3.8h2.4v9.1h-2.3zm4.7-10.3v-2.2h2.4v2.2h-2.4zm0 10.3v-9.1h2.4v9.1h-2.4zm4.9 0v-12.6h2.4v12.6h-2.4zm13.2 0h-2.2v-1.3c-.4.5-.8.9-1.3 1.2-.5.3-1 .4-1.5.4-1 0-1.9-.4-2.7-1.3-.7-.8-1.1-2-1.1-3.5s.4-2.7 1.1-3.5 1.6-1.2 2.8-1.2c1 0 1.9.4 2.6 1.3V235h2.4v12.4zm-6.4-4.7c0 1 .1 1.7.4 2.1.4.6.9.9 1.6.9.6 0 1-.2 1.4-.7.4-.5.6-1.2.6-2.1 0-1-.2-1.8-.6-2.3-.4-.5-.9-.7-1.5-.7s-1.1.2-1.4.7c-.3.5-.5 1.2-.5 2.1zm8.8-5.6v-2.2h2.4v2.2h-2.4zm0 10.3v-9.1h2.4v9.1h-2.4zm13.2 0h-2.4v-4.6c0-1-.1-1.6-.2-1.9-.1-.3-.3-.5-.5-.7-.2-.2-.5-.2-.8-.2-.4 0-.8.1-1.1.3-.3.2-.6.5-.7.9s-.2 1.1-.2 2.1v4.1h-2.4v-9.1h2.2v1.3c.8-1 1.8-1.5 3-1.5.5 0 1 .1 1.5.3s.8.4 1 .7c.2.3.4.6.5 1s.1.9.1 1.6v5.7zm2.2.6l2.8.3c0 .3.2.5.3.7.2.2.6.3 1.1.3.6 0 1.1-.1 1.4-.3.2-.1.4-.3.5-.6.1-.2.1-.6.1-1.1V246c-.7 1-1.6 1.5-2.7 1.5-1.2 0-2.2-.5-2.9-1.6-.6-.8-.8-1.8-.8-3 0-1.5.4-2.7 1.1-3.5.7-.8 1.6-1.2 2.7-1.2s2.1.5 2.8 1.5v-1.3h2.3v8.2c0 1.1-.1 1.9-.3 2.4-.2.5-.4.9-.7 1.3-.3.3-.7.5-1.3.7s-1.2.3-2 .3c-1.5 0-2.6-.3-3.3-.8s-1-1.2-1-2c-.1-.3-.1-.4-.1-.5zm2.2-5.3c0 1 .2 1.7.6 2.1s.8.7 1.4.7c.6 0 1.1-.2 1.5-.7.4-.5.6-1.1.6-2 0-.9-.2-1.6-.6-2.1-.4-.5-.9-.7-1.5-.7s-1.1.2-1.4.7-.6 1.1-.6 2zm12.1-7.8V251h-4.3v-1.9h2v-12.3h-2v-1.9h4.3zm-263.7 33.6v-11.1h-4.1v-1.5h10v1.5h-4.2v11.1h-1.7zm7.3 0v-12.6h1.5v4.5c.7-.8 1.6-1.3 2.7-1.3.7 0 1.3.1 1.8.4.5.3.9.6 1.1 1.1.2.5.3 1.1.3 2v5.8h-1.5v-5.8c0-.8-.2-1.3-.5-1.7-.3-.4-.8-.5-1.4-.5-.5 0-.9.1-1.3.4-.4.2-.7.6-.9 1-.2.4-.3 1-.3 1.7v5h-1.5zm16-3l1.6.2c-.3.9-.7 1.7-1.4 2.2-.7.5-1.6.8-2.6.8-1.3 0-2.4-.4-3.2-1.2-.8-.8-1.2-2-1.2-3.4 0-1.5.4-2.7 1.2-3.6s1.8-1.3 3.1-1.3c1.2 0 2.2.4 3 1.2s1.2 2 1.2 3.5v.4h-6.8c.1 1 .3 1.8.9 2.3.5.5 1.1.8 1.9.8.6 0 1-.1 1.5-.4.3-.3.6-.8.8-1.5zm-5.1-2.4h5.1c-.1-.8-.3-1.3-.6-1.7-.5-.6-1.1-.9-1.9-.9-.7 0-1.3.2-1.8.7-.4.4-.7 1.1-.8 1.9zm12.9 2.7l1.5-.2c.1.6.3 1.1.7 1.4.4.3.9.5 1.6.5.7 0 1.2-.1 1.6-.4.3-.3.5-.6.5-1 0-.3-.2-.6-.5-.8-.2-.1-.7-.3-1.6-.5-1.1-.3-1.9-.5-2.4-.7-.4-.2-.8-.5-1-.9-.2-.4-.3-.8-.3-1.2 0-.4.1-.8.3-1.1.2-.3.4-.6.8-.9.2-.2.6-.3 1-.4.4-.1.9-.2 1.3-.2.7 0 1.3.1 1.9.3s.9.5 1.2.8.4.8.5 1.4l-1.5.2c-.1-.5-.3-.8-.6-1.1-.3-.3-.8-.4-1.4-.4-.7 0-1.2.1-1.5.4-.3.2-.5.5-.5.8 0 .2.1.4.2.5.1.2.3.3.6.4.2.1.6.2 1.4.4 1.1.3 1.9.5 2.3.7s.8.5 1 .8.4.8.4 1.3-.2 1-.5 1.5-.7.8-1.3 1.1-1.2.4-1.9.4c-1.2 0-2.1-.2-2.7-.7-.5-.7-.9-1.5-1.1-2.4zm12.8 1.3l.2 1.4c-.4.1-.8.1-1.2.1-.6 0-1-.1-1.3-.3-.3-.2-.5-.4-.7-.7-.1-.3-.2-.9-.2-1.8v-5.2h-1.1v-1.2h1.1v-2.3l1.5-.9v3.2h1.6v1.2h-1.6v5.3c0 .4 0 .7.1.8.1.1.1.2.3.3s.3.1.5.1c.3.1.5 0 .8 0zm1.5 1.4v-9.1h1.4v1.4c.4-.6.7-1.1 1-1.3.3-.2.6-.3 1-.3.5 0 1 .2 1.6.5l-.5 1.4c-.4-.2-.8-.3-1.1-.3-.3 0-.6.1-.9.3s-.5.5-.6.8c-.2.5-.3 1.1-.3 1.8v4.8h-1.6zm12.1-3l1.6.2c-.3.9-.7 1.7-1.4 2.2-.7.5-1.6.8-2.6.8-1.3 0-2.4-.4-3.2-1.2-.8-.8-1.2-2-1.2-3.4 0-1.5.4-2.7 1.2-3.6s1.8-1.3 3.1-1.3c1.2 0 2.2.4 3 1.2s1.2 2 1.2 3.5v.4h-6.8c.1 1 .3 1.8.9 2.3.5.5 1.1.8 1.9.8.6 0 1-.1 1.5-.4.2-.3.6-.8.8-1.5zm-5.1-2.4h5.1c-.1-.8-.3-1.3-.6-1.7-.5-.6-1.1-.9-1.9-.9-.7 0-1.3.2-1.8.7-.5.4-.7 1.1-.8 1.9zm14.9 2.4l1.6.2c-.3.9-.7 1.7-1.4 2.2-.7.5-1.6.8-2.6.8-1.3 0-2.4-.4-3.2-1.2-.8-.8-1.2-2-1.2-3.4 0-1.5.4-2.7 1.2-3.6s1.8-1.3 3.1-1.3c1.2 0 2.2.4 3 1.2s1.2 2 1.2 3.5v.4H209c.1 1 .3 1.8.9 2.3.5.5 1.1.8 1.9.8.6 0 1-.1 1.5-.4.3-.3.6-.8.9-1.5zm-5.1-2.4h5.1c-.1-.8-.3-1.3-.6-1.7-.5-.6-1.1-.9-1.9-.9-.7 0-1.3.2-1.8.7-.5.4-.7 1.1-.8 1.9zm12 4l.2 1.4c-.4.1-.8.1-1.2.1-.6 0-1-.1-1.3-.3-.3-.2-.5-.4-.7-.7-.1-.3-.2-.9-.2-1.8v-5.2h-1.1v-1.2h1.1v-2.3l1.5-.9v3.2h1.6v1.2h-1.6v5.3c0 .4 0 .7.1.8.1.1.1.2.3.3s.3.1.5.1c.3.1.5 0 .8 0zm6.4 1.4v-12.6h1.5v7.2l3.7-3.7h2l-3.5 3.4 3.8 5.7h-1.9l-3-4.7-1.1 1v3.6h-1.5zm8.8-10.8v-1.8h1.5v1.8h-1.5zm0 10.8v-9.1h1.5v9.1h-1.5zm3.8 0v-12.6h1.5v12.6h-1.5zm3.9 0v-12.6h1.5v12.6H244zm10.2-3l1.6.2c-.3.9-.7 1.7-1.4 2.2-.7.5-1.6.8-2.6.8-1.3 0-2.4-.4-3.2-1.2-.8-.8-1.2-2-1.2-3.4 0-1.5.4-2.7 1.2-3.6s1.8-1.3 3.1-1.3c1.2 0 2.2.4 3 1.2s1.2 2 1.2 3.5v.4h-6.8c.1 1 .3 1.8.9 2.3.5.5 1.1.8 1.9.8.6 0 1-.1 1.5-.4.3-.3.6-.8.8-1.5zm-5.1-2.4h5.1c-.1-.8-.3-1.3-.6-1.7-.5-.6-1.1-.9-1.9-.9-.7 0-1.3.2-1.8.7-.4.4-.7 1.1-.8 1.9zm8.6 5.4v-9.1h1.4v1.4c.4-.6.7-1.1 1-1.3.3-.2.6-.3 1-.3.5 0 1 .2 1.6.5l-.5 1.4c-.4-.2-.8-.3-1.1-.3-.3 0-.6.1-.9.3s-.5.5-.6.8c-.2.5-.3 1.1-.3 1.8v4.8h-1.6zm10.8 0v-12.6h1.5v4.5c.7-.8 1.6-1.3 2.7-1.3.7 0 1.3.1 1.8.4.5.3.9.6 1.1 1.1.2.5.3 1.1.3 2v5.8h-1.5v-5.8c0-.8-.2-1.3-.5-1.7-.3-.4-.8-.5-1.4-.5-.5 0-.9.1-1.3.4-.4.2-.7.6-.9 1-.2.4-.3 1-.3 1.7v5h-1.5zm15.7-1.1c-.6.5-1.1.8-1.7 1s-1.1.3-1.7.3c-1 0-1.8-.2-2.3-.7-.5-.5-.8-1.1-.8-1.9 0-.4.1-.9.3-1.2.2-.4.5-.7.8-.9s.7-.4 1.1-.5c.3-.1.8-.2 1.4-.2 1.2-.1 2.2-.3 2.8-.5v-.4c0-.6-.1-1.1-.4-1.3-.4-.3-1-.5-1.8-.5-.7 0-1.3.1-1.6.4s-.6.7-.8 1.3l-1.5-.3c.1-.6.4-1.2.7-1.6s.8-.7 1.4-.9c.6-.2 1.3-.3 2.1-.3s1.4.1 1.9.3c.5.2.8.4 1.1.7s.4.6.5 1c.1.3.1.7.1 1.4v2.1c0 1.4 0 2.3.1 2.7.1.4.2.7.4 1.1h-1.6c-.3-.3-.4-.7-.5-1.1zm-.1-3.5c-.6.2-1.4.4-2.5.6-.6.1-1.1.2-1.3.3s-.5.3-.6.5c-.1.2-.2.5-.2.7 0 .4.2.8.5 1 .3.3.8.4 1.4.4.6 0 1.1-.1 1.6-.4.5-.3.8-.6 1-1.1.2-.3.2-.9.2-1.5v-.5zm3.3 1.9l1.5-.2c.1.6.3 1.1.7 1.4.4.3.9.5 1.6.5.7 0 1.2-.1 1.6-.4.3-.3.5-.6.5-1 0-.3-.2-.6-.5-.8-.2-.1-.7-.3-1.6-.5-1.1-.3-1.9-.5-2.4-.7-.4-.2-.8-.5-1-.9-.2-.4-.3-.8-.3-1.2 0-.4.1-.8.3-1.1.2-.3.4-.6.8-.9.2-.2.6-.3 1-.4.4-.1.9-.2 1.3-.2.7 0 1.3.1 1.9.3s.9.5 1.2.8.4.8.5 1.4l-1.5.2c-.1-.5-.3-.8-.6-1.1-.3-.3-.8-.4-1.4-.4-.7 0-1.2.1-1.5.4-.3.2-.5.5-.5.8 0 .2.1.4.2.5.1.2.3.3.6.4.2.1.6.2 1.4.4 1.1.3 1.9.5 2.3.7s.8.5 1 .8.4.8.4 1.3-.2 1-.5 1.5-.7.8-1.3 1.1-1.2.4-1.9.4c-1.2 0-2.1-.2-2.7-.7-.5-.7-.9-1.5-1.1-2.4zm14.3 2.7v-9.1h1.4v1.3c.3-.4.7-.8 1.1-1.1.5-.3 1-.4 1.6-.4.7 0 1.2.1 1.7.4.4.3.7.7.9 1.2.7-1.1 1.7-1.6 2.8-1.6.9 0 1.6.2 2.1.7.5.5.7 1.3.7 2.3v6.2h-1.5v-5.7c0-.6 0-1.1-.1-1.3-.1-.3-.3-.5-.5-.7s-.6-.2-.9-.2c-.6 0-1.2.2-1.6.6s-.6 1.1-.6 2v5.3h-1.5v-5.9c0-.7-.1-1.2-.4-1.5-.3-.3-.7-.5-1.2-.5-.4 0-.8.1-1.2.3s-.6.6-.8 1c-.2.4-.2 1.1-.2 1.9v4.7h-1.8zm20.9-3l1.6.2c-.3.9-.7 1.7-1.4 2.2-.7.5-1.6.8-2.6.8-1.3 0-2.4-.4-3.2-1.2-.8-.8-1.2-2-1.2-3.4 0-1.5.4-2.7 1.2-3.6s1.8-1.3 3.1-1.3c1.2 0 2.2.4 3 1.2s1.2 2 1.2 3.5v.4h-6.8c.1 1 .3 1.8.9 2.3.5.5 1.1.8 1.9.8.6 0 1-.1 1.5-.4.2-.3.6-.8.8-1.5zm-5.1-2.4h5.1c-.1-.8-.3-1.3-.6-1.7-.5-.6-1.1-.9-1.9-.9-.7 0-1.3.2-1.8.7-.5.4-.7 1.1-.8 1.9zm19.5 2l1.5.2c-.2 1-.6 1.9-1.3 2.5-.7.6-1.5.9-2.5.9-1.2 0-2.2-.4-3-1.2-.8-.8-1.1-2-1.1-3.5 0-1 .2-1.8.5-2.6.3-.7.8-1.3 1.5-1.7.7-.4 1.4-.6 2.2-.6 1 0 1.8.2 2.4.7.6.5 1 1.2 1.2 2.1l-1.5.2c-.1-.6-.4-1.1-.8-1.4-.4-.3-.8-.5-1.3-.5-.8 0-1.4.3-1.9.8s-.7 1.4-.7 2.6c0 1.2.2 2.1.7 2.7.5.6 1.1.8 1.8.8.6 0 1.1-.2 1.5-.6.4 0 .7-.6.8-1.4zm2.2-1.2c0-1.7.5-2.9 1.4-3.7.8-.7 1.7-1 2.9-1 1.3 0 2.3.4 3.1 1.2.8.8 1.2 2 1.2 3.4 0 1.2-.2 2.1-.5 2.8-.4.7-.9 1.2-1.5 1.6s-1.4.6-2.2.6c-1.3 0-2.3-.4-3.1-1.2-.9-1-1.3-2.1-1.3-3.7zm1.6 0c0 1.2.3 2 .8 2.6s1.1.9 1.9.9c.8 0 1.4-.3 1.9-.9s.8-1.5.8-2.7c0-1.1-.3-2-.8-2.6s-1.1-.9-1.9-.9c-.8 0-1.4.3-1.9.9s-.8 1.6-.8 2.7zm8.8 4.6v-9.1h1.4v1.4c.4-.6.7-1.1 1-1.3.3-.2.6-.3 1-.3.5 0 1 .2 1.6.5l-.5 1.4c-.4-.2-.8-.3-1.1-.3-.3 0-.6.1-.9.3s-.5.5-.6.8c-.2.5-.3 1.1-.3 1.8v4.8h-1.6zm5.8 0v-9.1h1.4v1.3c.7-1 1.6-1.5 2.9-1.5.5 0 1.1.1 1.5.3.5.2.8.5 1 .8s.4.7.5 1.1c.1.3.1.8.1 1.5v5.6h-1.5V263c0-.6-.1-1.1-.2-1.4-.1-.3-.3-.6-.6-.7s-.7-.3-1.1-.3c-.7 0-1.2.2-1.7.6-.5.4-.7 1.2-.7 2.4v5h-1.6zm16-3l1.6.2c-.3.9-.7 1.7-1.4 2.2-.7.5-1.6.8-2.6.8-1.3 0-2.4-.4-3.2-1.2-.8-.8-1.2-2-1.2-3.4 0-1.5.4-2.7 1.2-3.6.8-.8 1.8-1.3 3.1-1.3 1.2 0 2.2.4 3 1.2.8.8 1.2 2 1.2 3.5v.4h-6.8c.1 1 .3 1.8.8 2.3s1.1.8 1.9.8c.6 0 1-.1 1.5-.4.4-.3.7-.8.9-1.5zm-5-2.4h5.1c-.1-.8-.3-1.3-.6-1.7-.5-.6-1.1-.9-1.9-.9-.7 0-1.3.2-1.8.7-.5.4-.8 1.1-.8 1.9zm8.6 5.4v-9.1h1.4v1.4c.4-.6.7-1.1 1-1.3.3-.2.6-.3 1-.3.5 0 1 .2 1.6.5l-.5 1.4c-.4-.2-.8-.3-1.1-.3-.3 0-.6.1-.9.3-.3.2-.5.5-.6.8-.2.5-.3 1.1-.3 1.8v4.8H375zm12.1-3l1.6.2c-.3.9-.7 1.7-1.4 2.2-.7.5-1.6.8-2.6.8-1.3 0-2.4-.4-3.2-1.2-.8-.8-1.2-2-1.2-3.4 0-1.5.4-2.7 1.2-3.6.8-.8 1.8-1.3 3.1-1.3 1.2 0 2.2.4 3 1.2.8.8 1.2 2 1.2 3.5v.4H382c.1 1 .3 1.8.8 2.3.5.5 1.1.8 1.9.8.6 0 1-.1 1.5-.4.3-.3.6-.8.9-1.5zm-5.1-2.4h5.1c-.1-.8-.3-1.3-.6-1.7-.5-.6-1.1-.9-1.9-.9-.7 0-1.3.2-1.8.7s-.7 1.1-.8 1.9zm14.5 5.4v-1.1c-.6.9-1.4 1.4-2.5 1.4-.7 0-1.4-.2-2-.6-.6-.4-1.1-1-1.4-1.7-.3-.7-.5-1.5-.5-2.5 0-.9.2-1.7.5-2.5.3-.7.8-1.3 1.4-1.7s1.3-.6 2-.6c.5 0 1 .1 1.5.3.4.2.8.5 1 .9v-4.5h1.5v12.6h-1.5zm-4.9-4.6c0 1.2.2 2 .7 2.6s1.1.9 1.7.9c.7 0 1.2-.3 1.7-.8s.7-1.4.7-2.5c0-1.2-.2-2.2-.7-2.7-.5-.6-1.1-.9-1.8-.9s-1.3.3-1.7.8c-.3.5-.6 1.4-.6 2.6zm9.2 4.6v-1.8h1.8v1.8h-1.8z"/>
    <path id="fingers_5_" d="M270.7 719.2L256 700.4c-9.1-11.7-11-27.7-4.1-40.8 3.2-6.1 8.4-11.9 16.7-15.9 13.9-6.7 30.3-5.4 43.3 2.8 26 16.5 81.5 52.9 95.6 72.6" class="st0"/>
    <path id="fingers_6_" d="M343.1 719.2l15.8-12.4s6.7-4.7-7.9-18.2l-52-47.7" class="st4"/>
    <g id="mail_1_">
      <g id="XMLID_2_">
        <path d="M187.1 36.4l-5.3-5.3c-.3-.3-.4-.5 0-.9l5.9-5.9c.1-.1.3-.3.6-.5.1.3.1.6.1.8v11c0 .2 0 .5-.1.7-.3.5-.7.6-1.2.1zm-9.4-4.7c-2.6-2.7-5.3-5.3-7.9-8-.1-.2-.3-.3-.5-.6h17.9c-.1.2-.2.3-.3.4-2.7 2.7-5.3 5.4-8 8.1-.5.6-.7.6-1.2.1zm-1.5 0c.5.6 1.1 1.1 1.6 1.6.3.3.5.3.8 0 .5-.5 1-1 1.5-1.6.2-.2.4-.3.6 0 1.6 1.6 3.3 3.2 5 4.8.1.1.1.1.2.3h-15.4l.4-.4c1.5-1.6 3.1-3.1 4.6-4.7.2-.3.4-.3.7 0zm-1.5-.6l-5.4 5.4c-.4.4-.7.4-.9-.1-.1-.2-.2-.5-.2-.7V24.6c0-.2.1-.4.1-.7.2.2.4.3.5.5 2 1.9 3.9 3.9 5.9 5.8.4.3.4.5 0 .9z" class="st17"/>
        <path d="M181.8 31.1c1.8 1.8 3.6 3.5 5.3 5.3.5.5.9.4 1.1-.2.1-.2.1-.4.1-.7v-11c0-.2-.1-.4-.1-.8-.3.3-.4.4-.6.5l-5.9 5.9c-.3.5-.3.7.1 1zm-4 2.2c-.5-.6-1.1-1.1-1.6-1.6-.3-.3-.5-.3-.7 0-1.5 1.6-3.1 3.1-4.6 4.7l-.4.4h15.4c-.1-.1-.1-.2-.2-.3-1.7-1.6-3.3-3.2-5-4.8-.2-.2-.4-.2-.6 0-.5.5-1 1-1.5 1.6-.2.3-.5.3-.8 0zM169.6 22H187c1.5 0 2.4.9 2.4 2.4v11.2c0 1.4-.9 2.4-2.4 2.4h-17.4c-1.5 0-2.5-1-2.5-2.5v-11c0-1.5 1-2.5 2.5-2.5zm-.3 14.4l5.4-5.4c.3-.3.3-.5 0-.9-2-1.9-3.9-3.9-5.9-5.8l-.5-.5c0 .3-.1.5-.1.7v11.1c0 .2.1.5.2.7.3.5.5.5.9.1zm.5-12.6c2.6 2.6 5.3 5.3 7.9 8 .5.5.7.5 1.1 0 2.7-2.7 5.3-5.4 8-8.1.1-.1.2-.2.3-.4h-17.9c.3.2.4.3.6.5z"/>
      </g>
    </g>
    <g id="mail_2_">
      <g id="XMLID_3_">
        <path d="M211.7 7.3l3.5-3.5c.1-.1.2-.2.4-.3 0 .2.1.3.1.5v6.6c0 .1 0 .3-.1.4-.1.4-.4.4-.7.2L211.7 8c-.2-.4-.3-.5 0-.7zm-2.5.9l-4.8-4.8c-.1-.1-.2-.2-.3-.4h10.8c-.1.1-.1.2-.2.3-1.6 1.6-3.2 3.2-4.8 4.9-.3.3-.4.3-.7 0z" class="st18"/>
        <path d="M214.2 11.3h-9.3c.1-.1.2-.2.2-.3l2.8-2.8c.2-.2.3-.2.4 0l1 1c.2.2.3.2.5 0l.9-.9c.1-.1.2-.2.4 0 1 1 2 1.9 3 2.9l.1.1zm-10.6-7.4c0-.1 0-.2.1-.4l.3.3c1.2 1.2 2.3 2.4 3.5 3.5.2.2.2.3 0 .5-1.1 1.1-2.2 2.2-3.3 3.2-.2.2-.4.2-.6-.1-.1-.1-.1-.3-.1-.4 0-2.2 0-4.4.1-6.6z" class="st18"/>
        <path d="M215.2 3.8c-1.2 1.2-2.3 2.4-3.5 3.5-.2.2-.2.3 0 .5l3.2 3.2c.3.3.5.2.7-.2 0-.1.1-.3.1-.4V3.8c0-.1 0-.3-.1-.5-.2.3-.3.4-.4.5zm-7.3 4.4l-2.8 2.8c-.1.1-.1.1-.2.3h9.3c-.1-.1-.1-.1-.1-.2-1-1-2-1.9-3-2.9-.2-.1-.2-.1-.4 0l-.9.9c-.2.2-.3.2-.5 0-.3-.3-.7-.6-1-1-.1-.1-.2-.1-.4.1zm-3.4-4.8l4.8 4.8c.3.3.4.3.7 0 1.6-1.6 3.2-3.2 4.8-4.9.1-.1.1-.2.2-.3h-10.8c.1.3.2.4.3.4zm-1.6.5c0-.9.6-1.5 1.5-1.5h10.4c.9 0 1.5.5 1.5 1.4v6.7c0 .9-.6 1.5-1.5 1.5h-10.4c-.9 0-1.5-.6-1.5-1.5V3.9zm.7-.4c0 .2-.1.3-.1.4v6.7c0 .1 0 .3.1.4.2.3.3.3.6.1 1.1-1.1 2.2-2.2 3.3-3.2.2-.2.2-.3 0-.5L204 3.9l-.4-.4z"/>
      </g>
    </g>
    <path id="power" d="M399.7 3.8v-4H431v14.8h-31.3v-4c-.5 0-1-.1-1.4-.1-1.1-.1-1.7-.9-1.7-1.9V6c0-1.3.8-2.1 2.1-2.1.3-.1.6-.1 1-.1zm2 8.9H429v-11h-27.3v11zm-2-6.9h-1.1v2.8h1.1V5.8z"/>
    <path id="power_1_" d="M414.8 2.2v9.9H409V2.2h5.8z" class="st19"/>
    <path id="power_2_" d="M421.5 12h-5.8V2.1h5.8V12z" class="st19"/>
    <path id="power_3_" d="M428.4 2.2v9.9h-5.8V2.2h5.8z" class="st19"/>
    <path id="cell" d="M153.1-.8h3.8c.3 1.2.4 14.4.1 16.1h-3.9V-.8z"/>
    <path id="cell_1_" d="M147.2 15.2V3.6c.7 0 1.3-.1 2-.1h1.9c.4 1.1.5 9.6.1 11.7h-4z"/>
    <path id="cell_2_" d="M145.5 7.8c.2 2.5.1 4.9 0 7.4h-4.1V7.8h4.1z"/>
    <path id="cell_3_" d="M133.7 3.3c2.5-1.3 7.9-1.3 9.8-.2l-3.8 4.1V15c-1.6.5-1.8-.4-1.9-1.4V6.7c-1.2-.8-2.5-2-4.1-3.4zm3.3.7c0 .1-.1.3-.1.4.3.1.5.2.8.3.1-.2.1-.4.2-.6-.3 0-.6 0-.9-.1zm3.1.7c.1-.1.3-.1.4-.2.1-.1 0-.3-.1-.4-.2.1-.4.1-.5.2 0 .2.1.3.2.4z"/>
    <path id="person" d="M151.4 44.4h22.5v22.4h-22.5z" class="st20"/>
    <ellipse id="person_1_" cx="162.6" cy="51.9" class="st21" rx="7.5" ry="7.5"/>
    <path id="person_2_" d="M170.2 66.9h-15.1c0-4.2 3.4-7.5 7.5-7.5s7.6 3.4 7.6 7.5" class="st22"/>
    <g id="bluettoth">
      <g id="XMLID_4_">
        <path d="M294 2.4l1.4 1.4-1.4 1.4V2.4zm1.4 7.4c-.4.5-.9.9-1.4 1.4V8.4c.4.5.9 1 1.4 1.4z"/>
        <path d="M294 2.4v2.8l1.4-1.4c-.5-.4-.9-.9-1.4-1.4zm0 8.9c.5-.5.9-1 1.4-1.4L294 8.5v2.8zm-3.8-8.6l2.5 2.5v-6c1.5 1.5 3.1 3 4.6 4.5-1 1-2 2.1-3.1 3.1 1 1 2 2.1 3.1 3.1-1.5 1.5-3.1 3-4.6 4.5v-6l-2.5 2.5-1-1 .6-.6c.8-.8 1.7-1.6 2.5-2.5.1-.1.1-.1 0-.2l-2.9-2.9c-.1-.1-.1-.1-.1-.2.3-.1.6-.5.9-.8z" class="st23"/>
        <path d="M291.9 15.2c-1.5 0-2.6-.6-3.4-1.8-.5-.8-.8-1.7-1.1-2.7-.3-1.2-.4-2.3-.3-3.5 0-.6 0-1.2.1-1.9.1-1.5.4-3 1.1-4.3.4-.8.9-1.5 1.6-1.9.5-.3 1.1-.5 1.8-.5h3c1.3 0 2.3.5 3.1 1.6.6.8 1 1.8 1.2 2.7.3 1 .4 2 .5 3.1.1 1.7 0 3.4-.5 5.1-.2.9-.6 1.8-1.1 2.5-.5.7-1.2 1.3-2 1.5-.3.1-.7.1-1 .1h-3zm.8-10c-.8-.9-1.7-1.7-2.5-2.5l-1 1s.1.1.1.2l2.9 2.9c.1.1.1.1 0 .2-.8.8-1.6 1.7-2.5 2.5l-.6.6 1 1c.8-.9 1.7-1.7 2.5-2.5v6c1.6-1.5 3.1-3 4.6-4.5-1-1-2-2.1-3.1-3.1 1-1 2-2.1 3.1-3.1-1.5-1.5-3.1-3-4.6-4.5.1 1.8.1 3.8.1 5.8z"/>
      </g>
    </g>
    <g id="world">
      <g id="XMLID_5_">
        <path d="M186.1 9.3c.9-1.2 1.7-2.5 2.1-3.9.1-.5.1-1-.1-1.4-.1-.3-.2-.6-.3-.8-.1-.3 0-.6.3-.8.2-.1.3-.2.5-.3l1-.7c.4-.3.5-.7.5-1.2v-.8h.1c0 .1.1.1.1.2 2.8 5.4-.2 12.2-6 13.8-3.8 1-7 .1-9.8-2.6-.1-.1-.2-.2-.1-.4.3-.6.5-1.3.8-1.9.2-.5.5-1 .9-1.3.1-.1.3-.2.4-.4.2-.2.2-.4 0-.5-.1-.1-.3-.2-.4-.3-.3-.1-.5-.2-.8-.3-.4-.1-.7-.4-1.1-.6-.4-.3-.8-.6-1.3-.9-.2-.1-.3 0-.3.1l-.3.9c-.1.3-.1.7-.2 1-.3-1.3-.4-2.6-.1-3.9.2-1.3.7-2.5 1.5-3.6 0 .2-.1.4-.1.6V0c0 .3.2.5.6.5.7-.2 1.4-.4 1.8-1.1.2-.4.5-.8.7-1.3.1.7.2 1.3.2 1.9 0 .3.2.5.5.7.2.1.4.1.5-.1.1-.2.1-.4.2-.6.1-.6.3-1.1.4-1.7s.4-.7.9-.7c.3 0 .6-.1.9-.1.8 0 1.3.4 1.4 1.2 0 .3.1.5.1.8 0 .4-.1.4-.4.4-1-.1-1.8.9-1.6 1.8.1.3.3.5.6.6.9.3 1.9.6 2.8 1 .1 0 .1.1.2.1l.1.1c1 .8 1.2 1.9 1.3 3 .1.8.1 1.6.1 2.3 0 .4.1.7.2 1.1.2.5.5.6.9.2 0-.4.2-.6.3-.8z" class="st24"/>
        <path d="M193.1 3.8c0 6.3-5.1 11.4-11.4 11.4-6.3 0-11.5-5.1-11.4-11.4 0-6.3 5.1-11.4 11.4-11.4 6.2 0 11.3 5.1 11.4 11.4zm-4.9 1.6c-.4 1.5-1.2 2.7-2.1 3.9-.2.2-.4.5-.6.7-.4.4-.7.3-.9-.2-.1-.4-.2-.7-.2-1.1-.1-.8-.1-1.6-.1-2.3-.1-1.2-.3-2.3-1.3-3 0 0 0-.1-.1-.1-.1-.1-.1-.1-.2-.1-.9-.3-1.8-.7-2.8-1-.3-.1-.5-.3-.6-.6-.2-1 .6-1.9 1.6-1.8.4 0 .5 0 .4-.4 0-.3 0-.5-.1-.8-.1-.8-.5-1.2-1.4-1.2-.3 0-.6.1-.9.1-.6 0-.8.1-.9.7s-.3 1.1-.4 1.7c-.1.2-.1.4-.2.6-.1.2-.3.2-.5.1-.3-.2-.5-.4-.5-.7-.1-.6-.2-1.2-.2-1.9-.3.5-.5.8-.7 1.3-.4.7-1.1 1-1.8 1.1-.3.1-.5-.1-.6-.5v-.7c0-.2.1-.4.1-.6-.8 1.1-1.3 2.3-1.5 3.6-.2 1.3-.2 2.6.1 3.9.1-.3.1-.7.2-1l.3-.9c.1-.1.2-.2.3-.1.4.3.9.6 1.3.9.3.3.7.5 1.1.6.3.1.5.2.8.3.2.1.3.2.4.3.2.2.2.3 0 .5l-.4.4c-.4.4-.7.8-.9 1.3-.3.6-.5 1.3-.8 1.9-.1.2 0 .3.1.4 2.8 2.7 6.1 3.7 9.8 2.6 5.9-1.6 8.8-8.4 6-13.8 0-.1-.1-.1-.1-.2h-.1v.8c0 .5-.1.9-.5 1.2-.3.3-.7.5-1 .7-.2.1-.3.2-.5.3-.3.2-.4.4-.3.8.1.3.1.6.3.8.5.5.5 1 .4 1.5z"/>
      </g>
    </g>
    <g id="page">
      <path d="M155.7 91.8h-.6V72.1H170c0 .2.1.3.1.4v12.1c0 .8-.4 1.2-1.1 1.5-.2.1-.4.1-.6.2-.9.2-1.8.2-2.7.2-.7 0-1 .3-.9 1v2c0 .4-.1.9-.2 1.3-.2.7-.6 1.1-1.5 1.1-2.5-.1-5-.1-7.4-.1z" class="st18"/>
      <path d="M170.1 72h-14.9v19.7h8.1c.9 0 1.3-.5 1.5-1.1.1-.4.2-.8.2-1.3.1-.7.1-1.4 0-2-.1-.7.3-1 .9-1 .9 0 1.8 0 2.7-.2.2-.1.4-.1.6-.2.7-.3 1.1-.7 1.1-1.5V72.3c-.2 0-.2-.1-.2-.3zm-6.4 21.2h-9.4c-.3-.1-.6-.3-.6-.6V71.4c0-.6.3-.9.9-.9H171c.4.1.6.3.7.7v13.3c0 1-.2 2-.9 2.8-.5.6-1 1.1-1.5 1.6-1 1.1-2.1 2.1-3.1 3.2-.4.4-.9.8-1.5 1-.5.1-.8.1-1 .1z"/>
    </g>
  </g>
  <g id="dead_end">
    <path d="M206.5 279h185.9v21.6H206.5z" class="st15"/>
    <path d="M207.7 279.8h4c1 0 1.9.1 2.7.3.9.2 1.6.6 2.3 1 .6.5 1.2 1.1 1.5 1.9.4.8.6 1.7.6 2.8 0 1-.2 1.8-.6 2.6-.4.7-.9 1.4-1.5 1.9s-1.3.9-2.2 1.1c-.8.3-1.7.4-2.6.4h-4.3v-12zm2.7 9.6h1.4c.6 0 1.2-.1 1.7-.2s1-.3 1.4-.6c.4-.3.7-.7.9-1.1.2-.5.3-1 .3-1.7 0-.6-.1-1.1-.3-1.5-.2-.4-.5-.8-.9-1.1s-.8-.5-1.3-.6-1-.2-1.6-.2h-1.6v7zm15.3-9.6h8.2v2.4h-5.5v2.2h5.2v2.4h-5.2v2.4h5.8v2.4h-8.5v-11.8zm19.5 0h2.2l5.2 12h-3l-1-2.5h-4.7l-1 2.5H240l5.2-12zm1 3.5l-1.5 3.7h2.9l-1.4-3.7zm12.5-3.5h4c1 0 1.9.1 2.7.3.9.2 1.6.6 2.3 1 .6.5 1.2 1.1 1.5 1.9.4.8.6 1.7.6 2.8 0 1-.2 1.8-.6 2.6-.4.7-.9 1.4-1.5 1.9s-1.3.9-2.2 1.1c-.8.3-1.7.4-2.6.4h-4.3v-12zm2.7 9.6h1.4c.6 0 1.2-.1 1.7-.2s1-.3 1.4-.6c.4-.3.7-.7.9-1.1.2-.5.3-1 .3-1.7 0-.6-.1-1.1-.3-1.5-.2-.4-.5-.8-.9-1.1s-.8-.5-1.3-.6-1-.2-1.6-.2h-1.6v7zm25.2-9.6h8.2v2.4h-5.5v2.2h5.2v2.4h-5.2v2.4h5.8v2.4h-8.5v-11.8zm15.6 0h3.6l5.1 8.4v-8.4h2.7v12h-3.5l-5.3-8.6v8.6h-2.7v-12zm18.8 0h4c1 0 1.9.1 2.7.3.9.2 1.6.6 2.3 1 .6.5 1.2 1.1 1.5 1.9.4.8.6 1.7.6 2.8 0 1-.2 1.8-.6 2.6-.4.7-.9 1.4-1.5 1.9s-1.3.9-2.2 1.1c-.8.3-1.7.4-2.6.4H321v-12zm2.6 9.6h1.4c.6 0 1.2-.1 1.7-.2s1-.3 1.4-.6c.4-.3.7-.7.9-1.1.2-.5.3-1 .3-1.7 0-.6-.1-1.1-.3-1.5-.2-.4-.5-.8-.9-1.1s-.8-.5-1.3-.6-1-.2-1.6-.2h-1.6v7z"/>
  </g>
</svg>