<?xml version="1.0" encoding="utf-8"?>
<!-- Generator: Adobe Illustrator 18.1.1, SVG Export Plug-In . SVG Version: 6.00 Build 0)  -->
<!DOCTYPE svg PUBLIC "-//W3C//DTD SVG 1.1//EN" "http://www.w3.org/Graphics/SVG/1.1/DTD/svg11.dtd">
<svg version="1.1" id="Layer_1" xmlns="http://www.w3.org/2000/svg" xmlns:xlink="http://www.w3.org/1999/xlink" x="0px" y="0px"
	 width="350.5px" height="286.9px" viewBox="0 0 350.5 286.9" style="enable-background:new 0 0 350.5 286.9;" xml:space="preserve"
	>
<style type="text/css">
	.st0{fill:#FFFFFF;}
</style>
<g>
	<path class="st0" d="M111.3,286.9c-25,0.2-47.5-3.6-69.3-11.1c-14.4-4.9-28-11.4-40.9-19.5c-0.4-0.3-0.8-0.6-1.1-0.9
		c0.5-0.2,1.1-0.5,1.6-0.5c3.6,0.2,7.3,0.5,10.9,0.8c1,0.1,2,0.2,3,0.1c6.3-0.5,12.5-1.2,18.8-1.7c8.3-0.8,16.3-2.7,24.3-5.1
		c10.4-3.1,20.3-7.5,29.7-12.9c4.9-2.8,9.5-6.2,14.1-9.3c0.6-0.4,0.9-1.2,1.3-1.8c-0.7-0.3-1.4-0.9-2.1-1c-2.5-0.3-5-0.3-7.4-0.7
		c-13.1-2.5-24.8-8-35-16.8c-9.3-8-15.8-17.8-20.2-29.2c-0.2-0.5-0.4-0.9-0.5-1.4c-0.2-1,0.1-1.5,1.3-1.3c2.8,0.4,5.6,0.7,8.4,1.1
		c1,0.1,2,0.3,3,0.1c5.1-0.6,10.2-1.2,15.3-1.9c0.6-0.1,1-0.6,1.6-0.9c-0.5-0.4-0.9-0.9-1.4-1c-9.2-2.3-17.5-6.4-25-12
		c-14.1-10.7-23.6-24.6-27.2-42.1c-1-4.7-1.5-9.5-1.9-14.2c-0.2-2.3,0.2-2.5,2.1-1.4c5.3,2.8,10.8,5.1,16.8,6.2
		c3.6,0.7,7.2,1.1,10.8,1.5c0.5,0.1,0.9-0.2,1.4-0.3c-0.3-0.4-0.5-0.8-0.8-1.1c-0.9-0.8-1.7-1.6-2.6-2.3
		c-14.2-11.4-22.8-26.1-25.9-44c-2.6-15.5-0.5-30.4,6.3-44.6c0.4-0.8,0.8-1.5,1.2-2.2c0.6-1.1,1.4-1.4,2.3-0.3
		c1.7,2,3.4,4.1,5.2,6.1c15.3,16.7,32.8,30.7,52.4,41.8c19.4,11,40.1,18.6,62,22.8c7.6,1.4,15.4,2.2,23.1,3.2c1.1,0.1,2.3,0,3.5,0
		c1.8,0,2.1-0.9,1.9-2.6c-0.7-4.7-1.7-9.5-1.5-14.3c0.6-18.9,6.9-35.6,20.4-49.4c7.7-7.9,16.3-14.1,26.7-17.8c5.6-2,11.3-3.7,17.4-4
		c3.1-0.1,6.3-0.9,9.4-0.8c18.7,1,35.5,6.6,48.9,20.3c2.1,2.2,4,2.6,7,1.8c14-3.5,27.3-8.3,39.8-15.5c0.5-0.3,1.1-0.1,1.7-0.2
		c0,0.5,0,1-0.1,1.4c-5.4,14-14.2,25.5-26.3,34.3c-0.7,0.5-1.4,0.9-2.1,1.4c-0.2,0.2-0.4,0.6-0.4,0.8c0.1,0.2,0.6,0.4,0.8,0.4
		c3.1-0.4,6.2-0.8,9.3-1.4c9-1.9,17.7-4.5,26.2-8c0.4-0.2,0.9-0.1,1.4-0.2c-0.1,0.6-0.1,1.3-0.5,1.7c-2.5,3.3-4.8,6.8-7.6,9.9
		c-7.5,8.2-15.2,16.2-24.2,22.9c-1.5,1.1-2.2,2.3-2.2,4.1c0.1,3.3,0.1,6.7,0,10c-0.2,11.3-1.6,22.4-3.5,33.6
		c-2.4,13.8-6.4,27.1-11.5,40.1c-4.3,11-9.7,21.5-15.8,31.7c-5.9,9.8-12.4,19.3-20.1,27.8c-5.3,5.9-10.5,11.9-16.6,17.2
		c-9.2,8.2-18.9,15.7-29.2,22.4c-14.4,9.2-29.9,16-46.1,21c-11.4,3.6-23.1,5.9-35,7.3C128.7,286.2,119.1,287.1,111.3,286.9z"/>
</g>
</svg>
