<?xml version="1.0" encoding="utf-8"?>
<!-- Generator: Adobe Illustrator 18.1.1, SVG Export Plug-In . SVG Version: 6.00 Build 0)  -->
<!DOCTYPE svg PUBLIC "-//W3C//DTD SVG 1.1//EN" "http://www.w3.org/Graphics/SVG/1.1/DTD/svg11.dtd">
<svg version="1.1" id="Layer_1" xmlns="http://www.w3.org/2000/svg" xmlns:xlink="http://www.w3.org/1999/xlink" x="0px" y="0px"
	 width="599.3px" height="421.1px" viewBox="0 0 599.3 421.1" style="enable-background:new 0 0 599.3 421.1;" xml:space="preserve"
	>
<style type="text/css">
	.st0{fill:#FFFFFF;}
</style>
<g>
	<path class="st0" d="M599,208.8c0,12.2,0.2,24.4-0.1,36.6c-0.2,11.3-0.9,22.6-1.5,33.9c-0.5,8.5-1,17-1.8,25.5
		c-1.2,11.7-1.8,23.5-4.4,35.1c-2.7,11.7-6.1,23.2-11.3,34.1c-5.1,10.5-12.8,18.9-22.2,25.6c-10.9,7.8-23.1,12.3-36.4,13.9
		c-6,0.7-12.1,1.2-18.2,1.7c-6.2,0.5-12.3,0.8-18.5,1.1c-7.7,0.4-15.3,0.8-23,1.1c-9.5,0.4-18.9,0.8-28.4,1.1c-6,0.2-12,0.4-18,0.6
		c-7.2,0.2-14.4,0.4-21.6,0.6c-9.2,0.2-18.4,0.4-27.6,0.6c-15.4,0.2-30.8,0.4-46.1,0.6c-8.7,0.1-17.4,0.4-26.2,0.3
		c-13.9-0.1-27.8-0.3-41.6-0.5c-10.4-0.2-20.8-0.4-31.2-0.6c-8.5-0.2-17.1-0.4-25.6-0.6c-6.9-0.2-13.9-0.3-20.8-0.5
		c-6-0.2-12-0.4-18-0.6c-5.1-0.2-10.1-0.3-15.2-0.6c-8.1-0.4-16.3-0.7-24.4-1.2c-6.9-0.4-13.8-0.8-20.7-1.6
		c-10.3-1.3-20.7-2.3-30.7-5c-14.3-3.9-26.7-10.8-36.7-21.8c-4.3-4.7-7.4-10.1-10.2-15.8c-6.1-12.9-9.7-26.5-12.2-40.5
		c-0.9-5.2-1.3-10.6-1.8-15.9C4,311.1,3.6,306,3.2,301c-0.4-5-0.8-10.1-1.1-15.1c-0.6-10.2-1.2-20.4-1.5-30.5
		c-0.4-12.7-0.4-25.5-0.5-38.2c-0.1-14.2-0.2-28.3,0.1-42.5c0.2-11,0.9-22,1.5-33.1c0.5-8.4,1.1-16.8,1.8-25.2
		C4,109.6,4.9,103,5.5,96.3C6.7,83.6,9.8,71.4,14,59.4c3-8.6,6.7-16.9,12.5-24.1c6-7.6,13.3-13.7,21.8-18.4
		c9.1-5.1,18.8-8.3,29.2-9.5c5.5-0.6,11-1.2,16.5-1.6c7.1-0.6,14.2-1.1,21.3-1.5c5.9-0.3,11.8-0.5,17.7-0.7c6.3-0.3,12.5-0.7,18.8-1
		c1.4-0.1,2.8,0,4.2-0.1c8.8-0.2,17.6-0.5,26.4-0.7c7.1-0.2,14.2-0.4,21.4-0.6c9.7-0.2,19.5-0.3,29.2-0.6c36.6-1,73.2-0.4,109.7-0.5
		c5.9,0,11.8,0,17.7,0.1c9.9,0.1,19.9,0.3,29.8,0.6c7.4,0.2,14.8,0.3,22.2,0.5c6.2,0.2,12.4,0.3,18.5,0.6c9.7,0.3,19.5,0.7,29.2,1.1
		c7.8,0.3,15.5,0.7,23.3,1.1c5.8,0.3,11.6,0.7,17.4,1.1c10.1,0.8,20.2,1.4,30,3.8c16,3.9,29.4,12.1,40.3,24.4
		c4.1,4.7,7.2,10.1,9.8,15.7c5.8,12.7,9.4,26.1,11.8,39.8c0.9,5.4,1.3,11,1.8,16.5c0.6,5.4,1.1,10.8,1.6,16.2c0.2,2.5,0.5,5,0.6,7.6
		c0.6,11.9,1.4,23.7,1.8,35.6c0.5,14.7,0.5,29.4,0.8,44.1C599.2,208.8,599.1,208.8,599,208.8z M238,120.3c-0.1,0.5-0.3,0.7-0.3,0.9
		c0,55.3,0.1,110.7,0.1,166c0,0.1,0.1,0.2,0.1,0.2c0.1,0.1,0.2,0.1,0.4,0.1c0.7-0.4,1.6-0.7,2.4-1.2c6.9-3.6,13.8-7.2,20.7-10.8
		c15.2-7.9,30.5-15.8,45.7-23.7c16-8.3,32-16.6,47.9-24.8c12.9-6.7,25.8-13.4,38.7-20c1.7-0.9,3.3-1.8,5.1-2.8
		c-8.4-4.4-16.5-8.7-24.7-13c-13-6.8-25.9-13.5-38.9-20.3c-13-6.8-25.9-13.5-38.9-20.3c-11.7-6.1-23.5-12.2-35.2-18.3
		c-5.3-2.8-10.6-5.6-15.9-8.4C242.9,122.8,240.5,121.5,238,120.3z"/>
</g>
</svg>
